<?xml version="1.0" encoding="UTF-8"?>
<svg width="2563px" height="1489px" viewBox="0 0 2563 1489" version="1.1" xmlns="http://www.w3.org/2000/svg" xmlns:xlink="http://www.w3.org/1999/xlink">
    <title>graph</title>
    <defs>
        <linearGradient x1="100%" y1="46.7548283%" x2="0%" y2="46.7456809%" id="linearGradient-1">
            <stop stop-color="#00FC89" stop-opacity="0" offset="0%"></stop>
            <stop stop-color="#00FC89" offset="11.7979677%"></stop>
            <stop stop-color="#00FC89" offset="88.5926573%"></stop>
            <stop stop-color="#00FC89" stop-opacity="0" offset="100%"></stop>
        </linearGradient>
    </defs>
    <g id="📷-Image-Ratio" stroke="none" stroke-width="1" fill="none" fill-rule="evenodd">
        <g id="Artboard" transform="translate(2.000000, 2.000000)" stroke="url(#linearGradient-1)" stroke-width="2.69999981">
            <g id="graph">
                <path d="M0,970 C10.9488785,947.315102 23.5128759,935.972654 37.6919922,935.972654 C58.9606666,935.972654 57.5031648,920.491237 78.5687845,913.908229 C99.6344041,907.325222 110.025658,913.590429 125.362631,891.044066 C140.699605,868.497702 156.139924,858.603984 175.007737,866.308023 C193.875549,874.012062 189.415826,898.716674 209.07462,898.716674 C228.733413,898.716674 215.175501,916.862036 241.207811,916.862036 C267.240121,916.862036 249.680196,889.563326 269.546959,881.192255 C289.413722,872.821184 267.250607,845.609092 315.813029,839.190224 C364.375452,832.771355 342.757589,813.179487 369.345638,807.088896 C395.933686,800.998305 376.804412,753.719391 419.802463,753.719391 C462.800514,753.719391 446.216659,795.198621 468.590813,795.198621 C490.964968,795.198621 483.699353,779.843097 496.690597,779.843097 C509.681841,779.843097 511.847896,779.041056 538.167118,771.299842 C564.48634,763.558627 545.011086,744.299501 597.496223,744.299501 C649.981359,744.299501 630.0398,839.190224 669.710979,839.190224 C709.382157,839.190224 688.357353,799.747494 716.84927,799.747494 C745.341187,799.747494 719.4953,753.719391 748.629457,753.719391 C777.763615,753.719391 753.382035,720.274101 796.977301,720.274101 C840.572568,720.274101 831.105947,736.654766 852.758006,736.654766 C874.410064,736.654766 876.871985,713.703011 894.409425,713.429216 C911.946865,713.15542 904.184321,692.19296 944.290082,692.19296 C984.395843,692.19296 963.227606,664.877591 998.302485,664.877591 C1033.37736,664.877591 1003.26486,700.843183 1032.13998,700.843183 C1061.0151,700.843183 1039.95819,720.274101 1061.0151,720.274101 C1082.07202,720.274101 1065.59642,677.010149 1089.02962,677.010149 C1112.46283,677.010149 1098.69748,625.707736 1126.99458,625.707736 C1155.29169,625.707736 1138.41789,580.304758 1181.85474,580.304758 C1225.29159,580.304758 1201.83698,612.745235 1218.85206,612.745235 C1235.86714,612.745235 1232.13359,579.543265 1246.08304,579.543265 C1260.0325,579.543265 1257.04823,535.432259 1287.55036,535.432259 C1318.05248,535.432259 1313.44976,497.669883 1341.15601,497.669883 C1368.86225,497.669883 1366.22478,465.216572 1392.28261,464.882884 C1418.34044,464.549196 1425.18244,418.551568 1453,418.551568 C1480.81756,418.551568 1465.18238,449.163099 1490.81819,449.163099 C1516.45399,449.163099 1505.47211,423.697864 1529.80876,418.551568 C1554.14542,413.405272 1531.09933,386.964575 1559.59752,386.964575 C1588.09572,386.964575 1560.05451,423.324233 1587.94974,423.324233 C1615.84496,423.324233 1594.84897,397.160413 1615.76668,397.160413 C1636.6844,397.160413 1616.21944,354.599556 1652.41236,354.599556 C1688.60528,354.599556 1658.21355,386.964575 1686.23783,386.964575 C1714.26212,386.964575 1684.39894,332.754523 1718.46931,332.754523 C1752.53968,332.754523 1740.90772,309.155841 1775.09254,309.155841 C1809.27737,309.155841 1789.08197,281.765815 1813.21018,281.765815 C1837.33839,281.765815 1841.44648,270.170676 1877.05545,270.170676 C1912.66441,270.170676 1885.89059,240.944361 1910.16121,240.851775 C1934.43183,240.759188 1916.96695,253.751982 1938.83571,253.751982 C1960.70447,253.751982 1944.08038,217.231947 1968.12095,217.231947 C1992.16151,217.231947 1992.81881,198.0499 2014.78342,198.0499 C2036.74803,198.0499 2028.41645,253.751982 2070.54122,253.751982 C2112.66599,253.751982 2073.00745,290.514752 2107.34076,290.514752 C2141.67407,290.514752 2129.76535,240.851775 2158.09828,240.851775 C2186.4312,240.851775 2166.89736,198.0499 2200.94296,198.0499 C2234.98857,198.0499 2224.08461,136.564074 2262.49029,136.564074 C2300.89597,136.564074 2273.78633,172.729314 2298.6917,172.729314 C2323.59707,172.729314 2320.76612,126.679635 2344.78744,126.679635 C2368.80876,126.679635 2348.8584,90.2913234 2381.21215,90.2913234 C2413.5659,90.2913234 2384.17345,52.8879586 2418.65292,52.8879586 C2453.1324,52.8879586 2439.02776,90.2913234 2456.0937,90.2913234 C2473.15963,90.2913234 2470.12814,52.8879586 2493.53448,52.8879586 C2516.94081,52.8879586 2497.06398,26.9657105 2519.48265,26.9657105 C2541.90133,26.9657105 2546.47533,-1.13686838e-13 2560,-1.13686838e-13" id="Path"></path>
                <path d="M0,1228 C10.9488785,1205.3151 23.5128759,1193.97265 37.6919922,1193.97265 C58.9606666,1193.97265 57.5031648,1178.49124 78.5687845,1171.90823 C99.6344041,1165.32522 110.025658,1171.59043 125.362631,1149.04407 C140.699605,1126.4977 156.139924,1116.60398 175.007737,1124.30802 C193.875549,1132.01206 189.415826,1156.71667 209.07462,1156.71667 C228.733413,1156.71667 215.175501,1174.86204 241.207811,1174.86204 C267.240121,1174.86204 249.680196,1147.56333 269.546959,1139.19225 C289.413722,1130.82118 267.250607,1103.60909 315.813029,1097.19022 C364.375452,1090.77136 342.757589,1071.17949 369.345638,1065.0889 C395.933686,1058.9983 376.804412,1011.71939 419.802463,1011.71939 C462.800514,1011.71939 446.216659,1053.19862 468.590813,1053.19862 C490.964968,1053.19862 483.699353,1037.8431 496.690597,1037.8431 C509.681841,1037.8431 511.847896,1037.04106 538.167118,1029.29984 C564.48634,1021.55863 545.011086,1002.2995 597.496223,1002.2995 C649.981359,1002.2995 630.0398,1097.19022 669.710979,1097.19022 C709.382157,1097.19022 688.357353,1057.74749 716.84927,1057.74749 C745.341187,1057.74749 719.4953,1011.71939 748.629457,1011.71939 C777.763615,1011.71939 753.382035,978.274101 796.977301,978.274101 C840.572568,978.274101 831.105947,994.654766 852.758006,994.654766 C874.410064,994.654766 876.871985,971.703011 894.409425,971.429216 C911.946865,971.15542 904.184321,950.19296 944.290082,950.19296 C984.395843,950.19296 963.227606,922.877591 998.302485,922.877591 C1033.37736,922.877591 1003.26486,958.843183 1032.13998,958.843183 C1061.0151,958.843183 1039.95819,978.274101 1061.0151,978.274101 C1082.07202,978.274101 1065.59642,935.010149 1089.02962,935.010149 C1112.46283,935.010149 1098.69748,883.707736 1126.99458,883.707736 C1155.29169,883.707736 1138.41789,838.304758 1181.85474,838.304758 C1225.29159,838.304758 1201.83698,870.745235 1218.85206,870.745235 C1235.86714,870.745235 1232.13359,837.543265 1246.08304,837.543265 C1260.0325,837.543265 1257.04823,793.432259 1287.55036,793.432259 C1318.05248,793.432259 1313.44976,755.669883 1341.15601,755.669883 C1368.86225,755.669883 1366.22478,723.216572 1392.28261,722.882884 C1418.34044,722.549196 1425.18244,676.551568 1453,676.551568 C1480.81756,676.551568 1465.18238,707.163099 1490.81819,707.163099 C1516.45399,707.163099 1505.47211,681.697864 1529.80876,676.551568 C1554.14542,671.405272 1531.09933,644.964575 1559.59752,644.964575 C1588.09572,644.964575 1560.05451,681.324233 1587.94974,681.324233 C1615.84496,681.324233 1594.84897,655.160413 1615.76668,655.160413 C1636.6844,655.160413 1616.21944,612.599556 1652.41236,612.599556 C1688.60528,612.599556 1658.21355,644.964575 1686.23783,644.964575 C1714.26212,644.964575 1684.39894,590.754523 1718.46931,590.754523 C1752.53968,590.754523 1740.90772,567.155841 1775.09254,567.155841 C1809.27737,567.155841 1789.08197,539.765815 1813.21018,539.765815 C1837.33839,539.765815 1841.44648,528.170676 1877.05545,528.170676 C1912.66441,528.170676 1885.89059,498.944361 1910.16121,498.851775 C1934.43183,498.759188 1916.96695,511.751982 1938.83571,511.751982 C1960.70447,511.751982 1944.08038,475.231947 1968.12095,475.231947 C1992.16151,475.231947 1992.81881,456.0499 2014.78342,456.0499 C2036.74803,456.0499 2028.41645,511.751982 2070.54122,511.751982 C2112.66599,511.751982 2073.00745,548.514752 2107.34076,548.514752 C2141.67407,548.514752 2129.76535,498.851775 2158.09828,498.851775 C2186.4312,498.851775 2166.89736,456.0499 2200.94296,456.0499 C2234.98857,456.0499 2224.08461,394.564074 2262.49029,394.564074 C2300.89597,394.564074 2273.78633,430.729314 2298.6917,430.729314 C2323.59707,430.729314 2320.76612,384.679635 2344.78744,384.679635 C2368.80876,384.679635 2348.8584,348.291323 2381.21215,348.291323 C2413.5659,348.291323 2384.17345,310.887959 2418.65292,310.887959 C2453.1324,310.887959 2439.02776,348.291323 2456.0937,348.291323 C2473.15963,348.291323 2470.12814,310.887959 2493.53448,310.887959 C2516.94081,310.887959 2497.06398,284.965711 2519.48265,284.965711 C2541.90133,284.965711 2546.47533,258 2560,258" id="Path" opacity="0.299999982"></path>
                <path d="M0,1056 C10.9488785,1033.3151 23.5128759,1021.97265 37.6919922,1021.97265 C58.9606666,1021.97265 57.5031648,1006.49124 78.5687845,999.908229 C99.6344041,993.325222 110.025658,999.590429 125.362631,977.044066 C140.699605,954.497702 156.139924,944.603984 175.007737,952.308023 C193.875549,960.012062 189.415826,984.716674 209.07462,984.716674 C228.733413,984.716674 215.175501,1002.86204 241.207811,1002.86204 C267.240121,1002.86204 249.680196,975.563326 269.546959,967.192255 C289.413722,958.821184 267.250607,931.609092 315.813029,925.190224 C364.375452,918.771355 342.757589,899.179487 369.345638,893.088896 C395.933686,886.998305 376.804412,839.719391 419.802463,839.719391 C462.800514,839.719391 446.216659,881.198621 468.590813,881.198621 C490.964968,881.198621 483.699353,865.843097 496.690597,865.843097 C509.681841,865.843097 511.847896,865.041056 538.167118,857.299842 C564.48634,849.558627 545.011086,830.299501 597.496223,830.299501 C649.981359,830.299501 630.0398,925.190224 669.710979,925.190224 C709.382157,925.190224 688.357353,885.747494 716.84927,885.747494 C745.341187,885.747494 719.4953,839.719391 748.629457,839.719391 C777.763615,839.719391 753.382035,806.274101 796.977301,806.274101 C840.572568,806.274101 831.105947,822.654766 852.758006,822.654766 C874.410064,822.654766 876.871985,799.703011 894.409425,799.429216 C911.946865,799.15542 904.184321,778.19296 944.290082,778.19296 C984.395843,778.19296 963.227606,750.877591 998.302485,750.877591 C1033.37736,750.877591 1003.26486,786.843183 1032.13998,786.843183 C1061.0151,786.843183 1039.95819,806.274101 1061.0151,806.274101 C1082.07202,806.274101 1065.59642,763.010149 1089.02962,763.010149 C1112.46283,763.010149 1098.69748,711.707736 1126.99458,711.707736 C1155.29169,711.707736 1138.41789,666.304758 1181.85474,666.304758 C1225.29159,666.304758 1201.83698,698.745235 1218.85206,698.745235 C1235.86714,698.745235 1232.13359,665.543265 1246.08304,665.543265 C1260.0325,665.543265 1257.04823,621.432259 1287.55036,621.432259 C1318.05248,621.432259 1313.44976,583.669883 1341.15601,583.669883 C1368.86225,583.669883 1366.22478,551.216572 1392.28261,550.882884 C1418.34044,550.549196 1425.18244,504.551568 1453,504.551568 C1480.81756,504.551568 1465.18238,535.163099 1490.81819,535.163099 C1516.45399,535.163099 1505.47211,509.697864 1529.80876,504.551568 C1554.14542,499.405272 1531.09933,472.964575 1559.59752,472.964575 C1588.09572,472.964575 1560.05451,509.324233 1587.94974,509.324233 C1615.84496,509.324233 1594.84897,483.160413 1615.76668,483.160413 C1636.6844,483.160413 1616.21944,440.599556 1652.41236,440.599556 C1688.60528,440.599556 1658.21355,472.964575 1686.23783,472.964575 C1714.26212,472.964575 1684.39894,418.754523 1718.46931,418.754523 C1752.53968,418.754523 1740.90772,395.155841 1775.09254,395.155841 C1809.27737,395.155841 1789.08197,367.765815 1813.21018,367.765815 C1837.33839,367.765815 1841.44648,356.170676 1877.05545,356.170676 C1912.66441,356.170676 1885.89059,326.944361 1910.16121,326.851775 C1934.43183,326.759188 1916.96695,339.751982 1938.83571,339.751982 C1960.70447,339.751982 1944.08038,303.231947 1968.12095,303.231947 C1992.16151,303.231947 1992.81881,284.0499 2014.78342,284.0499 C2036.74803,284.0499 2028.41645,339.751982 2070.54122,339.751982 C2112.66599,339.751982 2073.00745,376.514752 2107.34076,376.514752 C2141.67407,376.514752 2129.76535,326.851775 2158.09828,326.851775 C2186.4312,326.851775 2166.89736,284.0499 2200.94296,284.0499 C2234.98857,284.0499 2224.08461,222.564074 2262.49029,222.564074 C2300.89597,222.564074 2273.78633,258.729314 2298.6917,258.729314 C2323.59707,258.729314 2320.76612,212.679635 2344.78744,212.679635 C2368.80876,212.679635 2348.8584,176.291323 2381.21215,176.291323 C2413.5659,176.291323 2384.17345,138.887959 2418.65292,138.887959 C2453.1324,138.887959 2439.02776,176.291323 2456.0937,176.291323 C2473.15963,176.291323 2470.12814,138.887959 2493.53448,138.887959 C2516.94081,138.887959 2497.06398,112.965711 2519.48265,112.965711 C2541.90133,112.965711 2546.47533,86 2560,86" id="Path" opacity="0.699999988"></path>
                <path d="M0,1314 C10.9488785,1291.3151 23.5128759,1279.97265 37.6919922,1279.97265 C58.9606666,1279.97265 57.5031648,1264.49124 78.5687845,1257.90823 C99.6344041,1251.32522 110.025658,1257.59043 125.362631,1235.04407 C140.699605,1212.4977 156.139924,1202.60398 175.007737,1210.30802 C193.875549,1218.01206 189.415826,1242.71667 209.07462,1242.71667 C228.733413,1242.71667 215.175501,1260.86204 241.207811,1260.86204 C267.240121,1260.86204 249.680196,1233.56333 269.546959,1225.19225 C289.413722,1216.82118 267.250607,1189.60909 315.813029,1183.19022 C364.375452,1176.77136 342.757589,1157.17949 369.345638,1151.0889 C395.933686,1144.9983 376.804412,1097.71939 419.802463,1097.71939 C462.800514,1097.71939 446.216659,1139.19862 468.590813,1139.19862 C490.964968,1139.19862 483.699353,1123.8431 496.690597,1123.8431 C509.681841,1123.8431 511.847896,1123.04106 538.167118,1115.29984 C564.48634,1107.55863 545.011086,1088.2995 597.496223,1088.2995 C649.981359,1088.2995 630.0398,1183.19022 669.710979,1183.19022 C709.382157,1183.19022 688.357353,1143.74749 716.84927,1143.74749 C745.341187,1143.74749 719.4953,1097.71939 748.629457,1097.71939 C777.763615,1097.71939 753.382035,1064.2741 796.977301,1064.2741 C840.572568,1064.2741 831.105947,1080.65477 852.758006,1080.65477 C874.410064,1080.65477 876.871985,1057.70301 894.409425,1057.42922 C911.946865,1057.15542 904.184321,1036.19296 944.290082,1036.19296 C984.395843,1036.19296 963.227606,1008.87759 998.302485,1008.87759 C1033.37736,1008.87759 1003.26486,1044.84318 1032.13998,1044.84318 C1061.0151,1044.84318 1039.95819,1064.2741 1061.0151,1064.2741 C1082.07202,1064.2741 1065.59642,1021.01015 1089.02962,1021.01015 C1112.46283,1021.01015 1098.69748,969.707736 1126.99458,969.707736 C1155.29169,969.707736 1138.41789,924.304758 1181.85474,924.304758 C1225.29159,924.304758 1201.83698,956.745235 1218.85206,956.745235 C1235.86714,956.745235 1232.13359,923.543265 1246.08304,923.543265 C1260.0325,923.543265 1257.04823,879.432259 1287.55036,879.432259 C1318.05248,879.432259 1313.44976,841.669883 1341.15601,841.669883 C1368.86225,841.669883 1366.22478,809.216572 1392.28261,808.882884 C1418.34044,808.549196 1425.18244,762.551568 1453,762.551568 C1480.81756,762.551568 1465.18238,793.163099 1490.81819,793.163099 C1516.45399,793.163099 1505.47211,767.697864 1529.80876,762.551568 C1554.14542,757.405272 1531.09933,730.964575 1559.59752,730.964575 C1588.09572,730.964575 1560.05451,767.324233 1587.94974,767.324233 C1615.84496,767.324233 1594.84897,741.160413 1615.76668,741.160413 C1636.6844,741.160413 1616.21944,698.599556 1652.41236,698.599556 C1688.60528,698.599556 1658.21355,730.964575 1686.23783,730.964575 C1714.26212,730.964575 1684.39894,676.754523 1718.46931,676.754523 C1752.53968,676.754523 1740.90772,653.155841 1775.09254,653.155841 C1809.27737,653.155841 1789.08197,625.765815 1813.21018,625.765815 C1837.33839,625.765815 1841.44648,614.170676 1877.05545,614.170676 C1912.66441,614.170676 1885.89059,584.944361 1910.16121,584.851775 C1934.43183,584.759188 1916.96695,597.751982 1938.83571,597.751982 C1960.70447,597.751982 1944.08038,561.231947 1968.12095,561.231947 C1992.16151,561.231947 1992.81881,542.0499 2014.78342,542.0499 C2036.74803,542.0499 2028.41645,597.751982 2070.54122,597.751982 C2112.66599,597.751982 2073.00745,634.514752 2107.34076,634.514752 C2141.67407,634.514752 2129.76535,584.851775 2158.09828,584.851775 C2186.4312,584.851775 2166.89736,542.0499 2200.94296,542.0499 C2234.98857,542.0499 2224.08461,480.564074 2262.49029,480.564074 C2300.89597,480.564074 2273.78633,516.729314 2298.6917,516.729314 C2323.59707,516.729314 2320.76612,470.679635 2344.78744,470.679635 C2368.80876,470.679635 2348.8584,434.291323 2381.21215,434.291323 C2413.5659,434.291323 2384.17345,396.887959 2418.65292,396.887959 C2453.1324,396.887959 2439.02776,434.291323 2456.0937,434.291323 C2473.15963,434.291323 2470.12814,396.887959 2493.53448,396.887959 C2516.94081,396.887959 2497.06398,370.965711 2519.48265,370.965711 C2541.90133,370.965711 2546.47533,344 2560,344" id="Path" opacity="0.199999988"></path>
                <path d="M0,1142 C10.9488785,1119.3151 23.5128759,1107.97265 37.6919922,1107.97265 C58.9606666,1107.97265 57.5031648,1092.49124 78.5687845,1085.90823 C99.6344041,1079.32522 110.025658,1085.59043 125.362631,1063.04407 C140.699605,1040.4977 156.139924,1030.60398 175.007737,1038.30802 C193.875549,1046.01206 189.415826,1070.71667 209.07462,1070.71667 C228.733413,1070.71667 215.175501,1088.86204 241.207811,1088.86204 C267.240121,1088.86204 249.680196,1061.56333 269.546959,1053.19225 C289.413722,1044.82118 267.250607,1017.60909 315.813029,1011.19022 C364.375452,1004.77136 342.757589,985.179487 369.345638,979.088896 C395.933686,972.998305 376.804412,925.719391 419.802463,925.719391 C462.800514,925.719391 446.216659,967.198621 468.590813,967.198621 C490.964968,967.198621 483.699353,951.843097 496.690597,951.843097 C509.681841,951.843097 511.847896,951.041056 538.167118,943.299842 C564.48634,935.558627 545.011086,916.299501 597.496223,916.299501 C649.981359,916.299501 630.0398,1011.19022 669.710979,1011.19022 C709.382157,1011.19022 688.357353,971.747494 716.84927,971.747494 C745.341187,971.747494 719.4953,925.719391 748.629457,925.719391 C777.763615,925.719391 753.382035,892.274101 796.977301,892.274101 C840.572568,892.274101 831.105947,908.654766 852.758006,908.654766 C874.410064,908.654766 876.871985,885.703011 894.409425,885.429216 C911.946865,885.15542 904.184321,864.19296 944.290082,864.19296 C984.395843,864.19296 963.227606,836.877591 998.302485,836.877591 C1033.37736,836.877591 1003.26486,872.843183 1032.13998,872.843183 C1061.0151,872.843183 1039.95819,892.274101 1061.0151,892.274101 C1082.07202,892.274101 1065.59642,849.010149 1089.02962,849.010149 C1112.46283,849.010149 1098.69748,797.707736 1126.99458,797.707736 C1155.29169,797.707736 1138.41789,752.304758 1181.85474,752.304758 C1225.29159,752.304758 1201.83698,784.745235 1218.85206,784.745235 C1235.86714,784.745235 1232.13359,751.543265 1246.08304,751.543265 C1260.0325,751.543265 1257.04823,707.432259 1287.55036,707.432259 C1318.05248,707.432259 1313.44976,669.669883 1341.15601,669.669883 C1368.86225,669.669883 1366.22478,637.216572 1392.28261,636.882884 C1418.34044,636.549196 1425.18244,590.551568 1453,590.551568 C1480.81756,590.551568 1465.18238,621.163099 1490.81819,621.163099 C1516.45399,621.163099 1505.47211,595.697864 1529.80876,590.551568 C1554.14542,585.405272 1531.09933,558.964575 1559.59752,558.964575 C1588.09572,558.964575 1560.05451,595.324233 1587.94974,595.324233 C1615.84496,595.324233 1594.84897,569.160413 1615.76668,569.160413 C1636.6844,569.160413 1616.21944,526.599556 1652.41236,526.599556 C1688.60528,526.599556 1658.21355,558.964575 1686.23783,558.964575 C1714.26212,558.964575 1684.39894,504.754523 1718.46931,504.754523 C1752.53968,504.754523 1740.90772,481.155841 1775.09254,481.155841 C1809.27737,481.155841 1789.08197,453.765815 1813.21018,453.765815 C1837.33839,453.765815 1841.44648,442.170676 1877.05545,442.170676 C1912.66441,442.170676 1885.89059,412.944361 1910.16121,412.851775 C1934.43183,412.759188 1916.96695,425.751982 1938.83571,425.751982 C1960.70447,425.751982 1944.08038,389.231947 1968.12095,389.231947 C1992.16151,389.231947 1992.81881,370.0499 2014.78342,370.0499 C2036.74803,370.0499 2028.41645,425.751982 2070.54122,425.751982 C2112.66599,425.751982 2073.00745,462.514752 2107.34076,462.514752 C2141.67407,462.514752 2129.76535,412.851775 2158.09828,412.851775 C2186.4312,412.851775 2166.89736,370.0499 2200.94296,370.0499 C2234.98857,370.0499 2224.08461,308.564074 2262.49029,308.564074 C2300.89597,308.564074 2273.78633,344.729314 2298.6917,344.729314 C2323.59707,344.729314 2320.76612,298.679635 2344.78744,298.679635 C2368.80876,298.679635 2348.8584,262.291323 2381.21215,262.291323 C2413.5659,262.291323 2384.17345,224.887959 2418.65292,224.887959 C2453.1324,224.887959 2439.02776,262.291323 2456.0937,262.291323 C2473.15963,262.291323 2470.12814,224.887959 2493.53448,224.887959 C2516.94081,224.887959 2497.06398,198.965711 2519.48265,198.965711 C2541.90133,198.965711 2546.47533,172 2560,172" id="Path" opacity="0.5"></path>
                <path d="M0,1400 C10.9488785,1377.3151 23.5128759,1365.97265 37.6919922,1365.97265 C58.9606666,1365.97265 57.5031648,1350.49124 78.5687845,1343.90823 C99.6344041,1337.32522 110.025658,1343.59043 125.362631,1321.04407 C140.699605,1298.4977 156.139924,1288.60398 175.007737,1296.30802 C193.875549,1304.01206 189.415826,1328.71667 209.07462,1328.71667 C228.733413,1328.71667 215.175501,1346.86204 241.207811,1346.86204 C267.240121,1346.86204 249.680196,1319.56333 269.546959,1311.19225 C289.413722,1302.82118 267.250607,1275.60909 315.813029,1269.19022 C364.375452,1262.77136 342.757589,1243.17949 369.345638,1237.0889 C395.933686,1230.9983 376.804412,1183.71939 419.802463,1183.71939 C462.800514,1183.71939 446.216659,1225.19862 468.590813,1225.19862 C490.964968,1225.19862 483.699353,1209.8431 496.690597,1209.8431 C509.681841,1209.8431 511.847896,1209.04106 538.167118,1201.29984 C564.48634,1193.55863 545.011086,1174.2995 597.496223,1174.2995 C649.981359,1174.2995 630.0398,1269.19022 669.710979,1269.19022 C709.382157,1269.19022 688.357353,1229.74749 716.84927,1229.74749 C745.341187,1229.74749 719.4953,1183.71939 748.629457,1183.71939 C777.763615,1183.71939 753.382035,1150.2741 796.977301,1150.2741 C840.572568,1150.2741 831.105947,1166.65477 852.758006,1166.65477 C874.410064,1166.65477 876.871985,1143.70301 894.409425,1143.42922 C911.946865,1143.15542 904.184321,1122.19296 944.290082,1122.19296 C984.395843,1122.19296 963.227606,1094.87759 998.302485,1094.87759 C1033.37736,1094.87759 1003.26486,1130.84318 1032.13998,1130.84318 C1061.0151,1130.84318 1039.95819,1150.2741 1061.0151,1150.2741 C1082.07202,1150.2741 1065.59642,1107.01015 1089.02962,1107.01015 C1112.46283,1107.01015 1098.69748,1055.70774 1126.99458,1055.70774 C1155.29169,1055.70774 1138.41789,1010.30476 1181.85474,1010.30476 C1225.29159,1010.30476 1201.83698,1042.74523 1218.85206,1042.74523 C1235.86714,1042.74523 1232.13359,1009.54326 1246.08304,1009.54326 C1260.0325,1009.54326 1257.04823,965.432259 1287.55036,965.432259 C1318.05248,965.432259 1313.44976,927.669883 1341.15601,927.669883 C1368.86225,927.669883 1366.22478,895.216572 1392.28261,894.882884 C1418.34044,894.549196 1425.18244,848.551568 1453,848.551568 C1480.81756,848.551568 1465.18238,879.163099 1490.81819,879.163099 C1516.45399,879.163099 1505.47211,853.697864 1529.80876,848.551568 C1554.14542,843.405272 1531.09933,816.964575 1559.59752,816.964575 C1588.09572,816.964575 1560.05451,853.324233 1587.94974,853.324233 C1615.84496,853.324233 1594.84897,827.160413 1615.76668,827.160413 C1636.6844,827.160413 1616.21944,784.599556 1652.41236,784.599556 C1688.60528,784.599556 1658.21355,816.964575 1686.23783,816.964575 C1714.26212,816.964575 1684.39894,762.754523 1718.46931,762.754523 C1752.53968,762.754523 1740.90772,739.155841 1775.09254,739.155841 C1809.27737,739.155841 1789.08197,711.765815 1813.21018,711.765815 C1837.33839,711.765815 1841.44648,700.170676 1877.05545,700.170676 C1912.66441,700.170676 1885.89059,670.944361 1910.16121,670.851775 C1934.43183,670.759188 1916.96695,683.751982 1938.83571,683.751982 C1960.70447,683.751982 1944.08038,647.231947 1968.12095,647.231947 C1992.16151,647.231947 1992.81881,628.0499 2014.78342,628.0499 C2036.74803,628.0499 2028.41645,683.751982 2070.54122,683.751982 C2112.66599,683.751982 2073.00745,720.514752 2107.34076,720.514752 C2141.67407,720.514752 2129.76535,670.851775 2158.09828,670.851775 C2186.4312,670.851775 2166.89736,628.0499 2200.94296,628.0499 C2234.98857,628.0499 2224.08461,566.564074 2262.49029,566.564074 C2300.89597,566.564074 2273.78633,602.729314 2298.6917,602.729314 C2323.59707,602.729314 2320.76612,556.679635 2344.78744,556.679635 C2368.80876,556.679635 2348.8584,520.291323 2381.21215,520.291323 C2413.5659,520.291323 2384.17345,482.887959 2418.65292,482.887959 C2453.1324,482.887959 2439.02776,520.291323 2456.0937,520.291323 C2473.15963,520.291323 2470.12814,482.887959 2493.53448,482.887959 C2516.94081,482.887959 2497.06398,456.965711 2519.48265,456.965711 C2541.90133,456.965711 2546.47533,430 2560,430" id="Path" opacity="0.149999991"></path>
                <path d="M0,1486 C10.9488785,1463.3151 23.5128759,1451.97265 37.6919922,1451.97265 C58.9606666,1451.97265 57.5031648,1436.49124 78.5687845,1429.90823 C99.6344041,1423.32522 110.025658,1429.59043 125.362631,1407.04407 C140.699605,1384.4977 156.139924,1374.60398 175.007737,1382.30802 C193.875549,1390.01206 189.415826,1414.71667 209.07462,1414.71667 C228.733413,1414.71667 215.175501,1432.86204 241.207811,1432.86204 C267.240121,1432.86204 249.680196,1405.56333 269.546959,1397.19225 C289.413722,1388.82118 267.250607,1361.60909 315.813029,1355.19022 C364.375452,1348.77136 342.757589,1329.17949 369.345638,1323.0889 C395.933686,1316.9983 376.804412,1269.71939 419.802463,1269.71939 C462.800514,1269.71939 446.216659,1311.19862 468.590813,1311.19862 C490.964968,1311.19862 483.699353,1295.8431 496.690597,1295.8431 C509.681841,1295.8431 511.847896,1295.04106 538.167118,1287.29984 C564.48634,1279.55863 545.011086,1260.2995 597.496223,1260.2995 C649.981359,1260.2995 630.0398,1355.19022 669.710979,1355.19022 C709.382157,1355.19022 688.357353,1315.74749 716.84927,1315.74749 C745.341187,1315.74749 719.4953,1269.71939 748.629457,1269.71939 C777.763615,1269.71939 753.382035,1236.2741 796.977301,1236.2741 C840.572568,1236.2741 831.105947,1252.65477 852.758006,1252.65477 C874.410064,1252.65477 876.871985,1229.70301 894.409425,1229.42922 C911.946865,1229.15542 904.184321,1208.19296 944.290082,1208.19296 C984.395843,1208.19296 963.227606,1180.87759 998.302485,1180.87759 C1033.37736,1180.87759 1003.26486,1216.84318 1032.13998,1216.84318 C1061.0151,1216.84318 1039.95819,1236.2741 1061.0151,1236.2741 C1082.07202,1236.2741 1065.59642,1193.01015 1089.02962,1193.01015 C1112.46283,1193.01015 1098.69748,1141.70774 1126.99458,1141.70774 C1155.29169,1141.70774 1138.41789,1096.30476 1181.85474,1096.30476 C1225.29159,1096.30476 1201.83698,1128.74523 1218.85206,1128.74523 C1235.86714,1128.74523 1232.13359,1095.54326 1246.08304,1095.54326 C1260.0325,1095.54326 1257.04823,1051.43226 1287.55036,1051.43226 C1318.05248,1051.43226 1313.44976,1013.66988 1341.15601,1013.66988 C1368.86225,1013.66988 1366.22478,981.216572 1392.28261,980.882884 C1418.34044,980.549196 1425.18244,934.551568 1453,934.551568 C1480.81756,934.551568 1465.18238,965.163099 1490.81819,965.163099 C1516.45399,965.163099 1505.47211,939.697864 1529.80876,934.551568 C1554.14542,929.405272 1531.09933,902.964575 1559.59752,902.964575 C1588.09572,902.964575 1560.05451,939.324233 1587.94974,939.324233 C1615.84496,939.324233 1594.84897,913.160413 1615.76668,913.160413 C1636.6844,913.160413 1616.21944,870.599556 1652.41236,870.599556 C1688.60528,870.599556 1658.21355,902.964575 1686.23783,902.964575 C1714.26212,902.964575 1684.39894,848.754523 1718.46931,848.754523 C1752.53968,848.754523 1740.90772,825.155841 1775.09254,825.155841 C1809.27737,825.155841 1789.08197,797.765815 1813.21018,797.765815 C1837.33839,797.765815 1841.44648,786.170676 1877.05545,786.170676 C1912.66441,786.170676 1885.89059,756.944361 1910.16121,756.851775 C1934.43183,756.759188 1916.96695,769.751982 1938.83571,769.751982 C1960.70447,769.751982 1944.08038,733.231947 1968.12095,733.231947 C1992.16151,733.231947 1992.81881,714.0499 2014.78342,714.0499 C2036.74803,714.0499 2028.41645,769.751982 2070.54122,769.751982 C2112.66599,769.751982 2073.00745,806.514752 2107.34076,806.514752 C2141.67407,806.514752 2129.76535,756.851775 2158.09828,756.851775 C2186.4312,756.851775 2166.89736,714.0499 2200.94296,714.0499 C2234.98857,714.0499 2224.08461,652.564074 2262.49029,652.564074 C2300.89597,652.564074 2273.78633,688.729314 2298.6917,688.729314 C2323.59707,688.729314 2320.76612,642.679635 2344.78744,642.679635 C2368.80876,642.679635 2348.8584,606.291323 2381.21215,606.291323 C2413.5659,606.291323 2384.17345,568.887959 2418.65292,568.887959 C2453.1324,568.887959 2439.02776,606.291323 2456.0937,606.291323 C2473.15963,606.291323 2470.12814,568.887959 2493.53448,568.887959 C2516.94081,568.887959 2497.06398,542.965711 2519.48265,542.965711 C2541.90133,542.965711 2546.47533,516 2560,516" id="Path" opacity="0.099999994"></path>
            </g>
        </g>
    </g>
</svg>