<?xml version="1.0" encoding="UTF-8"?>
<svg width="1455px" height="1238px" viewBox="0 0 1455 1238" version="1.1" xmlns="http://www.w3.org/2000/svg" xmlns:xlink="http://www.w3.org/1999/xlink">
    <title>graph</title>
    <g id="ðŸŒ-Website" stroke="none" stroke-width="1" fill="none" fill-rule="evenodd">
        <g id="graph" transform="translate(2.000000, 1.000000)" stroke="#00FC89" stroke-width="2.69999981">
            <path d="M0,649.970211 C10.9488785,627.262624 23.5128759,615.90883 37.6919922,615.90883 C58.9606666,615.90883 57.5031648,600.411928 78.5687845,593.822337 C99.6344041,587.232745 110.025658,593.504218 125.362631,570.935304 C140.699605,548.366389 156.139924,538.462775 175.007737,546.17452 C193.875549,553.886265 189.415826,578.615586 209.07462,578.615586 C228.733413,578.615586 215.175501,596.779097 241.207811,596.779097 C267.240121,596.779097 249.680196,569.453083 269.546959,561.073639 C289.413722,552.694195 267.250607,525.454886 315.813029,519.029597 C364.375452,512.604308 342.757589,492.992844 369.345638,486.896161 C395.933686,480.799477 376.804412,433.473275 419.802463,433.473275 C462.800514,433.473275 446.216659,474.993992 468.590813,474.993992 C490.964968,474.993992 483.699353,459.62311 496.690597,459.62311 C509.681841,459.62311 511.847896,458.820267 538.167118,451.07131 C564.48634,443.322352 545.011086,424.043963 597.496223,424.043963 C649.981359,424.043963 630.0398,519.029597 669.710979,519.029597 C709.382157,519.029597 688.357353,479.547416 716.84927,479.547416 C745.341187,479.547416 719.4953,433.473275 748.629457,433.473275 C777.763615,433.473275 753.382035,399.994532 796.977301,399.994532 C840.572568,399.994532 831.105947,416.391581 852.758006,416.391581 C874.410064,416.391581 876.871985,393.41687 894.409425,393.1428 C911.946865,392.868731 904.184321,371.885304 944.290082,371.885304 C984.395843,371.885304 963.227606,344.542613 998.302485,344.542613 C1033.37736,344.542613 1003.26486,380.544179 1032.13998,380.544179 C1061.0151,380.544179 1039.95819,399.994532 1061.0151,399.994532 C1082.07202,399.994532 1065.59642,356.687307 1089.02962,356.687307 C1112.46283,356.687307 1098.69748,305.33358 1126.99458,305.33358 C1155.29169,305.33358 1138.41789,259.885189 1181.85474,259.885189 C1225.29159,259.885189 1201.83698,292.358114 1218.85206,292.358114 C1235.86714,292.358114 1232.13359,259.122934 1246.08304,259.122934 C1260.0325,259.122934 1257.04823,214.967807 1287.55036,214.967807 C1318.05248,214.967807 1313.44976,177.167662 1341.15601,177.167662 C1368.86225,177.167662 1366.22478,144.68189 1392.28261,144.347868 C1418.34044,144.013846 1425.18244,97.9702112 1453,97.9702112" id="Path"></path>
            <path d="M0,552.970211 C10.9488785,530.262624 23.5128759,518.90883 37.6919922,518.90883 C58.9606666,518.90883 57.5031648,503.411928 78.5687845,496.822337 C99.6344041,490.232745 110.025658,496.504218 125.362631,473.935304 C140.699605,451.366389 156.139924,441.462775 175.007737,449.17452 C193.875549,456.886265 189.415826,481.615586 209.07462,481.615586 C228.733413,481.615586 215.175501,499.779097 241.207811,499.779097 C267.240121,499.779097 249.680196,472.453083 269.546959,464.073639 C289.413722,455.694195 267.250607,428.454886 315.813029,422.029597 C364.375452,415.604308 342.757589,395.992844 369.345638,389.896161 C395.933686,383.799477 376.804412,336.473275 419.802463,336.473275 C462.800514,336.473275 446.216659,377.993992 468.590813,377.993992 C490.964968,377.993992 483.699353,362.62311 496.690597,362.62311 C509.681841,362.62311 511.847896,361.820267 538.167118,354.07131 C564.48634,346.322352 545.011086,327.043963 597.496223,327.043963 C649.981359,327.043963 630.0398,422.029597 669.710979,422.029597 C709.382157,422.029597 688.357353,382.547416 716.84927,382.547416 C745.341187,382.547416 719.4953,336.473275 748.629457,336.473275 C777.763615,336.473275 753.382035,302.994532 796.977301,302.994532 C840.572568,302.994532 831.105947,319.391581 852.758006,319.391581 C874.410064,319.391581 876.871985,296.41687 894.409425,296.1428 C911.946865,295.868731 904.184321,274.885304 944.290082,274.885304 C984.395843,274.885304 963.227606,247.542613 998.302485,247.542613 C1033.37736,247.542613 1003.26486,283.544179 1032.13998,283.544179 C1061.0151,283.544179 1039.95819,302.994532 1061.0151,302.994532 C1082.07202,302.994532 1065.59642,259.687307 1089.02962,259.687307 C1112.46283,259.687307 1098.69748,208.33358 1126.99458,208.33358 C1155.29169,208.33358 1138.41789,162.885189 1181.85474,162.885189 C1225.29159,162.885189 1201.83698,195.358114 1218.85206,195.358114 C1235.86714,195.358114 1232.13359,162.122934 1246.08304,162.122934 C1260.0325,162.122934 1257.04823,117.967807 1287.55036,117.967807 C1318.05248,117.967807 1313.44976,80.1676616 1341.15601,80.1676616 C1368.86225,80.1676616 1366.22478,47.6818901 1392.28261,47.3478681 C1418.34044,47.0138462 1425.18244,0.970211161 1453,0.970211161" id="Path"></path>
            <path d="M0,747.970211 C10.9488785,725.262624 23.5128759,713.90883 37.6919922,713.90883 C58.9606666,713.90883 57.5031648,698.411928 78.5687845,691.822337 C99.6344041,685.232745 110.025658,691.504218 125.362631,668.935304 C140.699605,646.366389 156.139924,636.462775 175.007737,644.17452 C193.875549,651.886265 189.415826,676.615586 209.07462,676.615586 C228.733413,676.615586 215.175501,694.779097 241.207811,694.779097 C267.240121,694.779097 249.680196,667.453083 269.546959,659.073639 C289.413722,650.694195 267.250607,623.454886 315.813029,617.029597 C364.375452,610.604308 342.757589,590.992844 369.345638,584.896161 C395.933686,578.799477 376.804412,531.473275 419.802463,531.473275 C462.800514,531.473275 446.216659,572.993992 468.590813,572.993992 C490.964968,572.993992 483.699353,557.62311 496.690597,557.62311 C509.681841,557.62311 511.847896,556.820267 538.167118,549.07131 C564.48634,541.322352 545.011086,522.043963 597.496223,522.043963 C649.981359,522.043963 630.0398,617.029597 669.710979,617.029597 C709.382157,617.029597 688.357353,577.547416 716.84927,577.547416 C745.341187,577.547416 719.4953,531.473275 748.629457,531.473275 C777.763615,531.473275 753.382035,497.994532 796.977301,497.994532 C840.572568,497.994532 831.105947,514.391581 852.758006,514.391581 C874.410064,514.391581 876.871985,491.41687 894.409425,491.1428 C911.946865,490.868731 904.184321,469.885304 944.290082,469.885304 C984.395843,469.885304 963.227606,442.542613 998.302485,442.542613 C1033.37736,442.542613 1003.26486,478.544179 1032.13998,478.544179 C1061.0151,478.544179 1039.95819,497.994532 1061.0151,497.994532 C1082.07202,497.994532 1065.59642,454.687307 1089.02962,454.687307 C1112.46283,454.687307 1098.69748,403.33358 1126.99458,403.33358 C1155.29169,403.33358 1138.41789,357.885189 1181.85474,357.885189 C1225.29159,357.885189 1201.83698,390.358114 1218.85206,390.358114 C1235.86714,390.358114 1232.13359,357.122934 1246.08304,357.122934 C1260.0325,357.122934 1257.04823,312.967807 1287.55036,312.967807 C1318.05248,312.967807 1313.44976,275.167662 1341.15601,275.167662 C1368.86225,275.167662 1366.22478,242.68189 1392.28261,242.347868 C1418.34044,242.013846 1425.18244,195.970211 1453,195.970211" id="Path" opacity="0.7"></path>
            <path d="M0,844.970211 C10.9488785,822.262624 23.5128759,810.90883 37.6919922,810.90883 C58.9606666,810.90883 57.5031648,795.411928 78.5687845,788.822337 C99.6344041,782.232745 110.025658,788.504218 125.362631,765.935304 C140.699605,743.366389 156.139924,733.462775 175.007737,741.17452 C193.875549,748.886265 189.415826,773.615586 209.07462,773.615586 C228.733413,773.615586 215.175501,791.779097 241.207811,791.779097 C267.240121,791.779097 249.680196,764.453083 269.546959,756.073639 C289.413722,747.694195 267.250607,720.454886 315.813029,714.029597 C364.375452,707.604308 342.757589,687.992844 369.345638,681.896161 C395.933686,675.799477 376.804412,628.473275 419.802463,628.473275 C462.800514,628.473275 446.216659,669.993992 468.590813,669.993992 C490.964968,669.993992 483.699353,654.62311 496.690597,654.62311 C509.681841,654.62311 511.847896,653.820267 538.167118,646.07131 C564.48634,638.322352 545.011086,619.043963 597.496223,619.043963 C649.981359,619.043963 630.0398,714.029597 669.710979,714.029597 C709.382157,714.029597 688.357353,674.547416 716.84927,674.547416 C745.341187,674.547416 719.4953,628.473275 748.629457,628.473275 C777.763615,628.473275 753.382035,594.994532 796.977301,594.994532 C840.572568,594.994532 831.105947,611.391581 852.758006,611.391581 C874.410064,611.391581 876.871985,588.41687 894.409425,588.1428 C911.946865,587.868731 904.184321,566.885304 944.290082,566.885304 C984.395843,566.885304 963.227606,539.542613 998.302485,539.542613 C1033.37736,539.542613 1003.26486,575.544179 1032.13998,575.544179 C1061.0151,575.544179 1039.95819,594.994532 1061.0151,594.994532 C1082.07202,594.994532 1065.59642,551.687307 1089.02962,551.687307 C1112.46283,551.687307 1098.69748,500.33358 1126.99458,500.33358 C1155.29169,500.33358 1138.41789,454.885189 1181.85474,454.885189 C1225.29159,454.885189 1201.83698,487.358114 1218.85206,487.358114 C1235.86714,487.358114 1232.13359,454.122934 1246.08304,454.122934 C1260.0325,454.122934 1257.04823,409.967807 1287.55036,409.967807 C1318.05248,409.967807 1313.44976,372.167662 1341.15601,372.167662 C1368.86225,372.167662 1366.22478,339.68189 1392.28261,339.347868 C1418.34044,339.013846 1425.18244,292.970211 1453,292.970211" id="Path" opacity="0.5"></path>
            <path d="M0,942.970211 C10.9488785,920.262624 23.5128759,908.90883 37.6919922,908.90883 C58.9606666,908.90883 57.5031648,893.411928 78.5687845,886.822337 C99.6344041,880.232745 110.025658,886.504218 125.362631,863.935304 C140.699605,841.366389 156.139924,831.462775 175.007737,839.17452 C193.875549,846.886265 189.415826,871.615586 209.07462,871.615586 C228.733413,871.615586 215.175501,889.779097 241.207811,889.779097 C267.240121,889.779097 249.680196,862.453083 269.546959,854.073639 C289.413722,845.694195 267.250607,818.454886 315.813029,812.029597 C364.375452,805.604308 342.757589,785.992844 369.345638,779.896161 C395.933686,773.799477 376.804412,726.473275 419.802463,726.473275 C462.800514,726.473275 446.216659,767.993992 468.590813,767.993992 C490.964968,767.993992 483.699353,752.62311 496.690597,752.62311 C509.681841,752.62311 511.847896,751.820267 538.167118,744.07131 C564.48634,736.322352 545.011086,717.043963 597.496223,717.043963 C649.981359,717.043963 630.0398,812.029597 669.710979,812.029597 C709.382157,812.029597 688.357353,772.547416 716.84927,772.547416 C745.341187,772.547416 719.4953,726.473275 748.629457,726.473275 C777.763615,726.473275 753.382035,692.994532 796.977301,692.994532 C840.572568,692.994532 831.105947,709.391581 852.758006,709.391581 C874.410064,709.391581 876.871985,686.41687 894.409425,686.1428 C911.946865,685.868731 904.184321,664.885304 944.290082,664.885304 C984.395843,664.885304 963.227606,637.542613 998.302485,637.542613 C1033.37736,637.542613 1003.26486,673.544179 1032.13998,673.544179 C1061.0151,673.544179 1039.95819,692.994532 1061.0151,692.994532 C1082.07202,692.994532 1065.59642,649.687307 1089.02962,649.687307 C1112.46283,649.687307 1098.69748,598.33358 1126.99458,598.33358 C1155.29169,598.33358 1138.41789,552.885189 1181.85474,552.885189 C1225.29159,552.885189 1201.83698,585.358114 1218.85206,585.358114 C1235.86714,585.358114 1232.13359,552.122934 1246.08304,552.122934 C1260.0325,552.122934 1257.04823,507.967807 1287.55036,507.967807 C1318.05248,507.967807 1313.44976,470.167662 1341.15601,470.167662 C1368.86225,470.167662 1366.22478,437.68189 1392.28261,437.347868 C1418.34044,437.013846 1425.18244,390.970211 1453,390.970211" id="Path" opacity="0.3"></path>
            <path d="M0,1040.97021 C10.9488785,1018.26262 23.5128759,1006.90883 37.6919922,1006.90883 C58.9606666,1006.90883 57.5031648,991.411928 78.5687845,984.822337 C99.6344041,978.232745 110.025658,984.504218 125.362631,961.935304 C140.699605,939.366389 156.139924,929.462775 175.007737,937.17452 C193.875549,944.886265 189.415826,969.615586 209.07462,969.615586 C228.733413,969.615586 215.175501,987.779097 241.207811,987.779097 C267.240121,987.779097 249.680196,960.453083 269.546959,952.073639 C289.413722,943.694195 267.250607,916.454886 315.813029,910.029597 C364.375452,903.604308 342.757589,883.992844 369.345638,877.896161 C395.933686,871.799477 376.804412,824.473275 419.802463,824.473275 C462.800514,824.473275 446.216659,865.993992 468.590813,865.993992 C490.964968,865.993992 483.699353,850.62311 496.690597,850.62311 C509.681841,850.62311 511.847896,849.820267 538.167118,842.07131 C564.48634,834.322352 545.011086,815.043963 597.496223,815.043963 C649.981359,815.043963 630.0398,910.029597 669.710979,910.029597 C709.382157,910.029597 688.357353,870.547416 716.84927,870.547416 C745.341187,870.547416 719.4953,824.473275 748.629457,824.473275 C777.763615,824.473275 753.382035,790.994532 796.977301,790.994532 C840.572568,790.994532 831.105947,807.391581 852.758006,807.391581 C874.410064,807.391581 876.871985,784.41687 894.409425,784.1428 C911.946865,783.868731 904.184321,762.885304 944.290082,762.885304 C984.395843,762.885304 963.227606,735.542613 998.302485,735.542613 C1033.37736,735.542613 1003.26486,771.544179 1032.13998,771.544179 C1061.0151,771.544179 1039.95819,790.994532 1061.0151,790.994532 C1082.07202,790.994532 1065.59642,747.687307 1089.02962,747.687307 C1112.46283,747.687307 1098.69748,696.33358 1126.99458,696.33358 C1155.29169,696.33358 1138.41789,650.885189 1181.85474,650.885189 C1225.29159,650.885189 1201.83698,683.358114 1218.85206,683.358114 C1235.86714,683.358114 1232.13359,650.122934 1246.08304,650.122934 C1260.0325,650.122934 1257.04823,605.967807 1287.55036,605.967807 C1318.05248,605.967807 1313.44976,568.167662 1341.15601,568.167662 C1368.86225,568.167662 1366.22478,535.68189 1392.28261,535.347868 C1418.34044,535.013846 1425.18244,488.970211 1453,488.970211" id="Path" opacity="0.2"></path>
            <path d="M0,1137.97021 C10.9488785,1115.26262 23.5128759,1103.90883 37.6919922,1103.90883 C58.9606666,1103.90883 57.5031648,1088.41193 78.5687845,1081.82234 C99.6344041,1075.23274 110.025658,1081.50422 125.362631,1058.9353 C140.699605,1036.36639 156.139924,1026.46277 175.007737,1034.17452 C193.875549,1041.88626 189.415826,1066.61559 209.07462,1066.61559 C228.733413,1066.61559 215.175501,1084.7791 241.207811,1084.7791 C267.240121,1084.7791 249.680196,1057.45308 269.546959,1049.07364 C289.413722,1040.6942 267.250607,1013.45489 315.813029,1007.0296 C364.375452,1000.60431 342.757589,980.992844 369.345638,974.896161 C395.933686,968.799477 376.804412,921.473275 419.802463,921.473275 C462.800514,921.473275 446.216659,962.993992 468.590813,962.993992 C490.964968,962.993992 483.699353,947.62311 496.690597,947.62311 C509.681841,947.62311 511.847896,946.820267 538.167118,939.07131 C564.48634,931.322352 545.011086,912.043963 597.496223,912.043963 C649.981359,912.043963 630.0398,1007.0296 669.710979,1007.0296 C709.382157,1007.0296 688.357353,967.547416 716.84927,967.547416 C745.341187,967.547416 719.4953,921.473275 748.629457,921.473275 C777.763615,921.473275 753.382035,887.994532 796.977301,887.994532 C840.572568,887.994532 831.105947,904.391581 852.758006,904.391581 C874.410064,904.391581 876.871985,881.41687 894.409425,881.1428 C911.946865,880.868731 904.184321,859.885304 944.290082,859.885304 C984.395843,859.885304 963.227606,832.542613 998.302485,832.542613 C1033.37736,832.542613 1003.26486,868.544179 1032.13998,868.544179 C1061.0151,868.544179 1039.95819,887.994532 1061.0151,887.994532 C1082.07202,887.994532 1065.59642,844.687307 1089.02962,844.687307 C1112.46283,844.687307 1098.69748,793.33358 1126.99458,793.33358 C1155.29169,793.33358 1138.41789,747.885189 1181.85474,747.885189 C1225.29159,747.885189 1201.83698,780.358114 1218.85206,780.358114 C1235.86714,780.358114 1232.13359,747.122934 1246.08304,747.122934 C1260.0325,747.122934 1257.04823,702.967807 1287.55036,702.967807 C1318.05248,702.967807 1313.44976,665.167662 1341.15601,665.167662 C1368.86225,665.167662 1366.22478,632.68189 1392.28261,632.347868 C1418.34044,632.013846 1425.18244,585.970211 1453,585.970211" id="Path" opacity="0.1"></path>
            <path d="M0,1235.97021 C10.9488785,1213.26262 23.5128759,1201.90883 37.6919922,1201.90883 C58.9606666,1201.90883 57.5031648,1186.41193 78.5687845,1179.82234 C99.6344041,1173.23274 110.025658,1179.50422 125.362631,1156.9353 C140.699605,1134.36639 156.139924,1124.46277 175.007737,1132.17452 C193.875549,1139.88626 189.415826,1164.61559 209.07462,1164.61559 C228.733413,1164.61559 215.175501,1182.7791 241.207811,1182.7791 C267.240121,1182.7791 249.680196,1155.45308 269.546959,1147.07364 C289.413722,1138.6942 267.250607,1111.45489 315.813029,1105.0296 C364.375452,1098.60431 342.757589,1078.99284 369.345638,1072.89616 C395.933686,1066.79948 376.804412,1019.47327 419.802463,1019.47327 C462.800514,1019.47327 446.216659,1060.99399 468.590813,1060.99399 C490.964968,1060.99399 483.699353,1045.62311 496.690597,1045.62311 C509.681841,1045.62311 511.847896,1044.82027 538.167118,1037.07131 C564.48634,1029.32235 545.011086,1010.04396 597.496223,1010.04396 C649.981359,1010.04396 630.0398,1105.0296 669.710979,1105.0296 C709.382157,1105.0296 688.357353,1065.54742 716.84927,1065.54742 C745.341187,1065.54742 719.4953,1019.47327 748.629457,1019.47327 C777.763615,1019.47327 753.382035,985.994532 796.977301,985.994532 C840.572568,985.994532 831.105947,1002.39158 852.758006,1002.39158 C874.410064,1002.39158 876.871985,979.41687 894.409425,979.1428 C911.946865,978.868731 904.184321,957.885304 944.290082,957.885304 C984.395843,957.885304 963.227606,930.542613 998.302485,930.542613 C1033.37736,930.542613 1003.26486,966.544179 1032.13998,966.544179 C1061.0151,966.544179 1039.95819,985.994532 1061.0151,985.994532 C1082.07202,985.994532 1065.59642,942.687307 1089.02962,942.687307 C1112.46283,942.687307 1098.69748,891.33358 1126.99458,891.33358 C1155.29169,891.33358 1138.41789,845.885189 1181.85474,845.885189 C1225.29159,845.885189 1201.83698,878.358114 1218.85206,878.358114 C1235.86714,878.358114 1232.13359,845.122934 1246.08304,845.122934 C1260.0325,845.122934 1257.04823,800.967807 1287.55036,800.967807 C1318.05248,800.967807 1313.44976,763.167662 1341.15601,763.167662 C1368.86225,763.167662 1366.22478,730.68189 1392.28261,730.347868 C1418.34044,730.013846 1425.18244,683.970211 1453,683.970211" id="Path" opacity="0.099999994"></path>
        </g>
    </g>
</svg>