<?xml version="1.0" encoding="UTF-8"?>
<svg width="2563px" height="1550px" viewBox="0 0 2563 1550" version="1.1" xmlns="http://www.w3.org/2000/svg" xmlns:xlink="http://www.w3.org/1999/xlink">
    <title>graph</title>
    <defs>
        <linearGradient x1="100%" y1="46.7483333%" x2="0%" y2="46.7391676%" id="linearGradient-1">
            <stop stop-color="#00FC89" stop-opacity="0" offset="0%"></stop>
            <stop stop-color="#00FC89" offset="11.7979677%"></stop>
            <stop stop-color="#00FC89" offset="88.5926573%"></stop>
            <stop stop-color="#00FC89" stop-opacity="0" offset="100%"></stop>
        </linearGradient>
    </defs>
    <g id="📷-Image-Ratio" stroke="none" stroke-width="1" fill="none" fill-rule="evenodd">
        <g id="Artboard" transform="translate(2.000000, 2.000000)" stroke="url(#linearGradient-1)" stroke-width="2.69999981">
            <g id="graph">
                <path d="M0,970.970211 C10.9488785,948.262624 23.5128759,936.90883 37.6919922,936.90883 C58.9606666,936.90883 57.5031648,921.411928 78.5687845,914.822337 C99.6344041,908.232745 110.025658,914.504218 125.362631,891.935304 C140.699605,869.366389 156.139924,859.462775 175.007737,867.17452 C193.875549,874.886265 189.415826,899.615586 209.07462,899.615586 C228.733413,899.615586 215.175501,917.779097 241.207811,917.779097 C267.240121,917.779097 249.680196,890.453083 269.546959,882.073639 C289.413722,873.694195 267.250607,846.454886 315.813029,840.029597 C364.375452,833.604308 342.757589,813.992844 369.345638,807.896161 C395.933686,801.799477 376.804412,754.473275 419.802463,754.473275 C462.800514,754.473275 446.216659,795.993992 468.590813,795.993992 C490.964968,795.993992 483.699353,780.62311 496.690597,780.62311 C509.681841,780.62311 511.847896,779.820267 538.167118,772.07131 C564.48634,764.322352 545.011086,745.043963 597.496223,745.043963 C649.981359,745.043963 630.0398,840.029597 669.710979,840.029597 C709.382157,840.029597 688.357353,800.547416 716.84927,800.547416 C745.341187,800.547416 719.4953,754.473275 748.629457,754.473275 C777.763615,754.473275 753.382035,720.994532 796.977301,720.994532 C840.572568,720.994532 831.105947,737.391581 852.758006,737.391581 C874.410064,737.391581 876.871985,714.41687 894.409425,714.1428 C911.946865,713.868731 904.184321,692.885304 944.290082,692.885304 C984.395843,692.885304 963.227606,665.542613 998.302485,665.542613 C1033.37736,665.542613 1003.26486,701.544179 1032.13998,701.544179 C1061.0151,701.544179 1039.95819,720.994532 1061.0151,720.994532 C1082.07202,720.994532 1065.59642,677.687307 1089.02962,677.687307 C1112.46283,677.687307 1098.69748,626.33358 1126.99458,626.33358 C1155.29169,626.33358 1138.41789,580.885189 1181.85474,580.885189 C1225.29159,580.885189 1201.83698,613.358114 1218.85206,613.358114 C1235.86714,613.358114 1232.13359,580.122934 1246.08304,580.122934 C1260.0325,580.122934 1257.04823,535.967807 1287.55036,535.967807 C1318.05248,535.967807 1313.44976,498.167662 1341.15601,498.167662 C1368.86225,498.167662 1366.22478,465.68189 1392.28261,465.347868 C1418.34044,465.013846 1425.18244,418.970211 1453,418.970211 C1480.81756,418.970211 1465.18238,449.61236 1490.81819,449.61236 C1516.45399,449.61236 1505.47211,424.121655 1529.80876,418.970211 C1554.14542,413.818768 1531.09933,387.351624 1559.59752,387.351624 C1588.09572,387.351624 1560.05451,423.747649 1587.94974,423.747649 C1615.84496,423.747649 1594.84897,397.557659 1615.76668,397.557659 C1636.6844,397.557659 1616.21944,354.954233 1652.41236,354.954233 C1688.60528,354.954233 1658.21355,387.351624 1686.23783,387.351624 C1714.26212,387.351624 1684.39894,333.08735 1718.46931,333.08735 C1752.53968,333.08735 1740.90772,309.465065 1775.09254,309.465065 C1809.27737,309.465065 1789.08197,282.047642 1813.21018,282.047642 C1837.33839,282.047642 1841.44648,270.440906 1877.05545,270.440906 C1912.66441,270.440906 1885.89059,241.185358 1910.16121,241.092679 C1934.43183,241 1916.96695,254.005789 1938.83571,254.005789 C1960.70447,254.005789 1944.08038,217.449226 1968.12095,217.449226 C1992.16151,217.449226 1992.81881,198.247993 2014.78342,198.247993 C2036.74803,198.247993 2028.41645,254.005789 2070.54122,254.005789 C2112.66599,254.005789 2073.00745,290.80533 2107.34076,290.80533 C2141.67407,290.80533 2129.76535,241.092679 2158.09828,241.092679 C2186.4312,241.092679 2166.89736,198.247993 2200.94296,198.247993 C2234.98857,198.247993 2224.08461,136.700668 2262.49029,136.700668 C2300.89597,136.700668 2273.78633,172.902081 2298.6917,172.902081 C2323.59707,172.902081 2320.76612,126.806342 2344.78744,126.806342 C2368.80876,126.806342 2348.8584,90.3816343 2381.21215,90.3816343 C2413.5659,90.3816343 2384.17345,52.940858 2418.65292,52.940858 C2453.1324,52.940858 2439.02776,90.3816343 2456.0937,90.3816343 C2473.15963,90.3816343 2470.12814,52.940858 2493.53448,52.940858 C2516.94081,52.940858 2497.06398,26.9926821 2519.48265,26.9926821 C2541.90133,26.9926821 2546.47533,-1.13686838e-13 2560,-1.13686838e-13" id="Path"></path>
                <path d="M0,1258.97021 C10.9488785,1236.26262 23.5128759,1224.90883 37.6919922,1224.90883 C58.9606666,1224.90883 57.5031648,1209.41193 78.5687845,1202.82234 C99.6344041,1196.23274 110.025658,1202.50422 125.362631,1179.9353 C140.699605,1157.36639 156.139924,1147.46277 175.007737,1155.17452 C193.875549,1162.88626 189.415826,1187.61559 209.07462,1187.61559 C228.733413,1187.61559 215.175501,1205.7791 241.207811,1205.7791 C267.240121,1205.7791 249.680196,1178.45308 269.546959,1170.07364 C289.413722,1161.6942 267.250607,1134.45489 315.813029,1128.0296 C364.375452,1121.60431 342.757589,1101.99284 369.345638,1095.89616 C395.933686,1089.79948 376.804412,1042.47327 419.802463,1042.47327 C462.800514,1042.47327 446.216659,1083.99399 468.590813,1083.99399 C490.964968,1083.99399 483.699353,1068.62311 496.690597,1068.62311 C509.681841,1068.62311 511.847896,1067.82027 538.167118,1060.07131 C564.48634,1052.32235 545.011086,1033.04396 597.496223,1033.04396 C649.981359,1033.04396 630.0398,1128.0296 669.710979,1128.0296 C709.382157,1128.0296 688.357353,1088.54742 716.84927,1088.54742 C745.341187,1088.54742 719.4953,1042.47327 748.629457,1042.47327 C777.763615,1042.47327 753.382035,1008.99453 796.977301,1008.99453 C840.572568,1008.99453 831.105947,1025.39158 852.758006,1025.39158 C874.410064,1025.39158 876.871985,1002.41687 894.409425,1002.1428 C911.946865,1001.86873 904.184321,980.885304 944.290082,980.885304 C984.395843,980.885304 963.227606,953.542613 998.302485,953.542613 C1033.37736,953.542613 1003.26486,989.544179 1032.13998,989.544179 C1061.0151,989.544179 1039.95819,1008.99453 1061.0151,1008.99453 C1082.07202,1008.99453 1065.59642,965.687307 1089.02962,965.687307 C1112.46283,965.687307 1098.69748,914.33358 1126.99458,914.33358 C1155.29169,914.33358 1138.41789,868.885189 1181.85474,868.885189 C1225.29159,868.885189 1201.83698,901.358114 1218.85206,901.358114 C1235.86714,901.358114 1232.13359,868.122934 1246.08304,868.122934 C1260.0325,868.122934 1257.04823,823.967807 1287.55036,823.967807 C1318.05248,823.967807 1313.44976,786.167662 1341.15601,786.167662 C1368.86225,786.167662 1366.22478,753.68189 1392.28261,753.347868 C1418.34044,753.013846 1425.18244,706.970211 1453,706.970211 C1480.81756,706.970211 1465.18238,737.61236 1490.81819,737.61236 C1516.45399,737.61236 1505.47211,712.121655 1529.80876,706.970211 C1554.14542,701.818768 1531.09933,675.351624 1559.59752,675.351624 C1588.09572,675.351624 1560.05451,711.747649 1587.94974,711.747649 C1615.84496,711.747649 1594.84897,685.557659 1615.76668,685.557659 C1636.6844,685.557659 1616.21944,642.954233 1652.41236,642.954233 C1688.60528,642.954233 1658.21355,675.351624 1686.23783,675.351624 C1714.26212,675.351624 1684.39894,621.08735 1718.46931,621.08735 C1752.53968,621.08735 1740.90772,597.465065 1775.09254,597.465065 C1809.27737,597.465065 1789.08197,570.047642 1813.21018,570.047642 C1837.33839,570.047642 1841.44648,558.440906 1877.05545,558.440906 C1912.66441,558.440906 1885.89059,529.185358 1910.16121,529.092679 C1934.43183,529 1916.96695,542.005789 1938.83571,542.005789 C1960.70447,542.005789 1944.08038,505.449226 1968.12095,505.449226 C1992.16151,505.449226 1992.81881,486.247993 2014.78342,486.247993 C2036.74803,486.247993 2028.41645,542.005789 2070.54122,542.005789 C2112.66599,542.005789 2073.00745,578.80533 2107.34076,578.80533 C2141.67407,578.80533 2129.76535,529.092679 2158.09828,529.092679 C2186.4312,529.092679 2166.89736,486.247993 2200.94296,486.247993 C2234.98857,486.247993 2224.08461,424.700668 2262.49029,424.700668 C2300.89597,424.700668 2273.78633,460.902081 2298.6917,460.902081 C2323.59707,460.902081 2320.76612,414.806342 2344.78744,414.806342 C2368.80876,414.806342 2348.8584,378.381634 2381.21215,378.381634 C2413.5659,378.381634 2384.17345,340.940858 2418.65292,340.940858 C2453.1324,340.940858 2439.02776,378.381634 2456.0937,378.381634 C2473.15963,378.381634 2470.12814,340.940858 2493.53448,340.940858 C2516.94081,340.940858 2497.06398,314.992682 2519.48265,314.992682 C2541.90133,314.992682 2546.47533,288 2560,288" id="Path" opacity="0.299999982"></path>
                <path d="M0,1066.97021 C10.9488785,1044.26262 23.5128759,1032.90883 37.6919922,1032.90883 C58.9606666,1032.90883 57.5031648,1017.41193 78.5687845,1010.82234 C99.6344041,1004.23274 110.025658,1010.50422 125.362631,987.935304 C140.699605,965.366389 156.139924,955.462775 175.007737,963.17452 C193.875549,970.886265 189.415826,995.615586 209.07462,995.615586 C228.733413,995.615586 215.175501,1013.7791 241.207811,1013.7791 C267.240121,1013.7791 249.680196,986.453083 269.546959,978.073639 C289.413722,969.694195 267.250607,942.454886 315.813029,936.029597 C364.375452,929.604308 342.757589,909.992844 369.345638,903.896161 C395.933686,897.799477 376.804412,850.473275 419.802463,850.473275 C462.800514,850.473275 446.216659,891.993992 468.590813,891.993992 C490.964968,891.993992 483.699353,876.62311 496.690597,876.62311 C509.681841,876.62311 511.847896,875.820267 538.167118,868.07131 C564.48634,860.322352 545.011086,841.043963 597.496223,841.043963 C649.981359,841.043963 630.0398,936.029597 669.710979,936.029597 C709.382157,936.029597 688.357353,896.547416 716.84927,896.547416 C745.341187,896.547416 719.4953,850.473275 748.629457,850.473275 C777.763615,850.473275 753.382035,816.994532 796.977301,816.994532 C840.572568,816.994532 831.105947,833.391581 852.758006,833.391581 C874.410064,833.391581 876.871985,810.41687 894.409425,810.1428 C911.946865,809.868731 904.184321,788.885304 944.290082,788.885304 C984.395843,788.885304 963.227606,761.542613 998.302485,761.542613 C1033.37736,761.542613 1003.26486,797.544179 1032.13998,797.544179 C1061.0151,797.544179 1039.95819,816.994532 1061.0151,816.994532 C1082.07202,816.994532 1065.59642,773.687307 1089.02962,773.687307 C1112.46283,773.687307 1098.69748,722.33358 1126.99458,722.33358 C1155.29169,722.33358 1138.41789,676.885189 1181.85474,676.885189 C1225.29159,676.885189 1201.83698,709.358114 1218.85206,709.358114 C1235.86714,709.358114 1232.13359,676.122934 1246.08304,676.122934 C1260.0325,676.122934 1257.04823,631.967807 1287.55036,631.967807 C1318.05248,631.967807 1313.44976,594.167662 1341.15601,594.167662 C1368.86225,594.167662 1366.22478,561.68189 1392.28261,561.347868 C1418.34044,561.013846 1425.18244,514.970211 1453,514.970211 C1480.81756,514.970211 1465.18238,545.61236 1490.81819,545.61236 C1516.45399,545.61236 1505.47211,520.121655 1529.80876,514.970211 C1554.14542,509.818768 1531.09933,483.351624 1559.59752,483.351624 C1588.09572,483.351624 1560.05451,519.747649 1587.94974,519.747649 C1615.84496,519.747649 1594.84897,493.557659 1615.76668,493.557659 C1636.6844,493.557659 1616.21944,450.954233 1652.41236,450.954233 C1688.60528,450.954233 1658.21355,483.351624 1686.23783,483.351624 C1714.26212,483.351624 1684.39894,429.08735 1718.46931,429.08735 C1752.53968,429.08735 1740.90772,405.465065 1775.09254,405.465065 C1809.27737,405.465065 1789.08197,378.047642 1813.21018,378.047642 C1837.33839,378.047642 1841.44648,366.440906 1877.05545,366.440906 C1912.66441,366.440906 1885.89059,337.185358 1910.16121,337.092679 C1934.43183,337 1916.96695,350.005789 1938.83571,350.005789 C1960.70447,350.005789 1944.08038,313.449226 1968.12095,313.449226 C1992.16151,313.449226 1992.81881,294.247993 2014.78342,294.247993 C2036.74803,294.247993 2028.41645,350.005789 2070.54122,350.005789 C2112.66599,350.005789 2073.00745,386.80533 2107.34076,386.80533 C2141.67407,386.80533 2129.76535,337.092679 2158.09828,337.092679 C2186.4312,337.092679 2166.89736,294.247993 2200.94296,294.247993 C2234.98857,294.247993 2224.08461,232.700668 2262.49029,232.700668 C2300.89597,232.700668 2273.78633,268.902081 2298.6917,268.902081 C2323.59707,268.902081 2320.76612,222.806342 2344.78744,222.806342 C2368.80876,222.806342 2348.8584,186.381634 2381.21215,186.381634 C2413.5659,186.381634 2384.17345,148.940858 2418.65292,148.940858 C2453.1324,148.940858 2439.02776,186.381634 2456.0937,186.381634 C2473.15963,186.381634 2470.12814,148.940858 2493.53448,148.940858 C2516.94081,148.940858 2497.06398,122.992682 2519.48265,122.992682 C2541.90133,122.992682 2546.47533,96 2560,96" id="Path" opacity="0.699999988"></path>
                <path d="M0,1354.97021 C10.9488785,1332.26262 23.5128759,1320.90883 37.6919922,1320.90883 C58.9606666,1320.90883 57.5031648,1305.41193 78.5687845,1298.82234 C99.6344041,1292.23274 110.025658,1298.50422 125.362631,1275.9353 C140.699605,1253.36639 156.139924,1243.46277 175.007737,1251.17452 C193.875549,1258.88626 189.415826,1283.61559 209.07462,1283.61559 C228.733413,1283.61559 215.175501,1301.7791 241.207811,1301.7791 C267.240121,1301.7791 249.680196,1274.45308 269.546959,1266.07364 C289.413722,1257.6942 267.250607,1230.45489 315.813029,1224.0296 C364.375452,1217.60431 342.757589,1197.99284 369.345638,1191.89616 C395.933686,1185.79948 376.804412,1138.47327 419.802463,1138.47327 C462.800514,1138.47327 446.216659,1179.99399 468.590813,1179.99399 C490.964968,1179.99399 483.699353,1164.62311 496.690597,1164.62311 C509.681841,1164.62311 511.847896,1163.82027 538.167118,1156.07131 C564.48634,1148.32235 545.011086,1129.04396 597.496223,1129.04396 C649.981359,1129.04396 630.0398,1224.0296 669.710979,1224.0296 C709.382157,1224.0296 688.357353,1184.54742 716.84927,1184.54742 C745.341187,1184.54742 719.4953,1138.47327 748.629457,1138.47327 C777.763615,1138.47327 753.382035,1104.99453 796.977301,1104.99453 C840.572568,1104.99453 831.105947,1121.39158 852.758006,1121.39158 C874.410064,1121.39158 876.871985,1098.41687 894.409425,1098.1428 C911.946865,1097.86873 904.184321,1076.8853 944.290082,1076.8853 C984.395843,1076.8853 963.227606,1049.54261 998.302485,1049.54261 C1033.37736,1049.54261 1003.26486,1085.54418 1032.13998,1085.54418 C1061.0151,1085.54418 1039.95819,1104.99453 1061.0151,1104.99453 C1082.07202,1104.99453 1065.59642,1061.68731 1089.02962,1061.68731 C1112.46283,1061.68731 1098.69748,1010.33358 1126.99458,1010.33358 C1155.29169,1010.33358 1138.41789,964.885189 1181.85474,964.885189 C1225.29159,964.885189 1201.83698,997.358114 1218.85206,997.358114 C1235.86714,997.358114 1232.13359,964.122934 1246.08304,964.122934 C1260.0325,964.122934 1257.04823,919.967807 1287.55036,919.967807 C1318.05248,919.967807 1313.44976,882.167662 1341.15601,882.167662 C1368.86225,882.167662 1366.22478,849.68189 1392.28261,849.347868 C1418.34044,849.013846 1425.18244,802.970211 1453,802.970211 C1480.81756,802.970211 1465.18238,833.61236 1490.81819,833.61236 C1516.45399,833.61236 1505.47211,808.121655 1529.80876,802.970211 C1554.14542,797.818768 1531.09933,771.351624 1559.59752,771.351624 C1588.09572,771.351624 1560.05451,807.747649 1587.94974,807.747649 C1615.84496,807.747649 1594.84897,781.557659 1615.76668,781.557659 C1636.6844,781.557659 1616.21944,738.954233 1652.41236,738.954233 C1688.60528,738.954233 1658.21355,771.351624 1686.23783,771.351624 C1714.26212,771.351624 1684.39894,717.08735 1718.46931,717.08735 C1752.53968,717.08735 1740.90772,693.465065 1775.09254,693.465065 C1809.27737,693.465065 1789.08197,666.047642 1813.21018,666.047642 C1837.33839,666.047642 1841.44648,654.440906 1877.05545,654.440906 C1912.66441,654.440906 1885.89059,625.185358 1910.16121,625.092679 C1934.43183,625 1916.96695,638.005789 1938.83571,638.005789 C1960.70447,638.005789 1944.08038,601.449226 1968.12095,601.449226 C1992.16151,601.449226 1992.81881,582.247993 2014.78342,582.247993 C2036.74803,582.247993 2028.41645,638.005789 2070.54122,638.005789 C2112.66599,638.005789 2073.00745,674.80533 2107.34076,674.80533 C2141.67407,674.80533 2129.76535,625.092679 2158.09828,625.092679 C2186.4312,625.092679 2166.89736,582.247993 2200.94296,582.247993 C2234.98857,582.247993 2224.08461,520.700668 2262.49029,520.700668 C2300.89597,520.700668 2273.78633,556.902081 2298.6917,556.902081 C2323.59707,556.902081 2320.76612,510.806342 2344.78744,510.806342 C2368.80876,510.806342 2348.8584,474.381634 2381.21215,474.381634 C2413.5659,474.381634 2384.17345,436.940858 2418.65292,436.940858 C2453.1324,436.940858 2439.02776,474.381634 2456.0937,474.381634 C2473.15963,474.381634 2470.12814,436.940858 2493.53448,436.940858 C2516.94081,436.940858 2497.06398,410.992682 2519.48265,410.992682 C2541.90133,410.992682 2546.47533,384 2560,384" id="Path" opacity="0.199999988"></path>
                <path d="M0,1162.97021 C10.9488785,1140.26262 23.5128759,1128.90883 37.6919922,1128.90883 C58.9606666,1128.90883 57.5031648,1113.41193 78.5687845,1106.82234 C99.6344041,1100.23274 110.025658,1106.50422 125.362631,1083.9353 C140.699605,1061.36639 156.139924,1051.46277 175.007737,1059.17452 C193.875549,1066.88626 189.415826,1091.61559 209.07462,1091.61559 C228.733413,1091.61559 215.175501,1109.7791 241.207811,1109.7791 C267.240121,1109.7791 249.680196,1082.45308 269.546959,1074.07364 C289.413722,1065.6942 267.250607,1038.45489 315.813029,1032.0296 C364.375452,1025.60431 342.757589,1005.99284 369.345638,999.896161 C395.933686,993.799477 376.804412,946.473275 419.802463,946.473275 C462.800514,946.473275 446.216659,987.993992 468.590813,987.993992 C490.964968,987.993992 483.699353,972.62311 496.690597,972.62311 C509.681841,972.62311 511.847896,971.820267 538.167118,964.07131 C564.48634,956.322352 545.011086,937.043963 597.496223,937.043963 C649.981359,937.043963 630.0398,1032.0296 669.710979,1032.0296 C709.382157,1032.0296 688.357353,992.547416 716.84927,992.547416 C745.341187,992.547416 719.4953,946.473275 748.629457,946.473275 C777.763615,946.473275 753.382035,912.994532 796.977301,912.994532 C840.572568,912.994532 831.105947,929.391581 852.758006,929.391581 C874.410064,929.391581 876.871985,906.41687 894.409425,906.1428 C911.946865,905.868731 904.184321,884.885304 944.290082,884.885304 C984.395843,884.885304 963.227606,857.542613 998.302485,857.542613 C1033.37736,857.542613 1003.26486,893.544179 1032.13998,893.544179 C1061.0151,893.544179 1039.95819,912.994532 1061.0151,912.994532 C1082.07202,912.994532 1065.59642,869.687307 1089.02962,869.687307 C1112.46283,869.687307 1098.69748,818.33358 1126.99458,818.33358 C1155.29169,818.33358 1138.41789,772.885189 1181.85474,772.885189 C1225.29159,772.885189 1201.83698,805.358114 1218.85206,805.358114 C1235.86714,805.358114 1232.13359,772.122934 1246.08304,772.122934 C1260.0325,772.122934 1257.04823,727.967807 1287.55036,727.967807 C1318.05248,727.967807 1313.44976,690.167662 1341.15601,690.167662 C1368.86225,690.167662 1366.22478,657.68189 1392.28261,657.347868 C1418.34044,657.013846 1425.18244,610.970211 1453,610.970211 C1480.81756,610.970211 1465.18238,641.61236 1490.81819,641.61236 C1516.45399,641.61236 1505.47211,616.121655 1529.80876,610.970211 C1554.14542,605.818768 1531.09933,579.351624 1559.59752,579.351624 C1588.09572,579.351624 1560.05451,615.747649 1587.94974,615.747649 C1615.84496,615.747649 1594.84897,589.557659 1615.76668,589.557659 C1636.6844,589.557659 1616.21944,546.954233 1652.41236,546.954233 C1688.60528,546.954233 1658.21355,579.351624 1686.23783,579.351624 C1714.26212,579.351624 1684.39894,525.08735 1718.46931,525.08735 C1752.53968,525.08735 1740.90772,501.465065 1775.09254,501.465065 C1809.27737,501.465065 1789.08197,474.047642 1813.21018,474.047642 C1837.33839,474.047642 1841.44648,462.440906 1877.05545,462.440906 C1912.66441,462.440906 1885.89059,433.185358 1910.16121,433.092679 C1934.43183,433 1916.96695,446.005789 1938.83571,446.005789 C1960.70447,446.005789 1944.08038,409.449226 1968.12095,409.449226 C1992.16151,409.449226 1992.81881,390.247993 2014.78342,390.247993 C2036.74803,390.247993 2028.41645,446.005789 2070.54122,446.005789 C2112.66599,446.005789 2073.00745,482.80533 2107.34076,482.80533 C2141.67407,482.80533 2129.76535,433.092679 2158.09828,433.092679 C2186.4312,433.092679 2166.89736,390.247993 2200.94296,390.247993 C2234.98857,390.247993 2224.08461,328.700668 2262.49029,328.700668 C2300.89597,328.700668 2273.78633,364.902081 2298.6917,364.902081 C2323.59707,364.902081 2320.76612,318.806342 2344.78744,318.806342 C2368.80876,318.806342 2348.8584,282.381634 2381.21215,282.381634 C2413.5659,282.381634 2384.17345,244.940858 2418.65292,244.940858 C2453.1324,244.940858 2439.02776,282.381634 2456.0937,282.381634 C2473.15963,282.381634 2470.12814,244.940858 2493.53448,244.940858 C2516.94081,244.940858 2497.06398,218.992682 2519.48265,218.992682 C2541.90133,218.992682 2546.47533,192 2560,192" id="Path" opacity="0.5"></path>
                <path d="M0,1450.97021 C10.9488785,1428.26262 23.5128759,1416.90883 37.6919922,1416.90883 C58.9606666,1416.90883 57.5031648,1401.41193 78.5687845,1394.82234 C99.6344041,1388.23274 110.025658,1394.50422 125.362631,1371.9353 C140.699605,1349.36639 156.139924,1339.46277 175.007737,1347.17452 C193.875549,1354.88626 189.415826,1379.61559 209.07462,1379.61559 C228.733413,1379.61559 215.175501,1397.7791 241.207811,1397.7791 C267.240121,1397.7791 249.680196,1370.45308 269.546959,1362.07364 C289.413722,1353.6942 267.250607,1326.45489 315.813029,1320.0296 C364.375452,1313.60431 342.757589,1293.99284 369.345638,1287.89616 C395.933686,1281.79948 376.804412,1234.47327 419.802463,1234.47327 C462.800514,1234.47327 446.216659,1275.99399 468.590813,1275.99399 C490.964968,1275.99399 483.699353,1260.62311 496.690597,1260.62311 C509.681841,1260.62311 511.847896,1259.82027 538.167118,1252.07131 C564.48634,1244.32235 545.011086,1225.04396 597.496223,1225.04396 C649.981359,1225.04396 630.0398,1320.0296 669.710979,1320.0296 C709.382157,1320.0296 688.357353,1280.54742 716.84927,1280.54742 C745.341187,1280.54742 719.4953,1234.47327 748.629457,1234.47327 C777.763615,1234.47327 753.382035,1200.99453 796.977301,1200.99453 C840.572568,1200.99453 831.105947,1217.39158 852.758006,1217.39158 C874.410064,1217.39158 876.871985,1194.41687 894.409425,1194.1428 C911.946865,1193.86873 904.184321,1172.8853 944.290082,1172.8853 C984.395843,1172.8853 963.227606,1145.54261 998.302485,1145.54261 C1033.37736,1145.54261 1003.26486,1181.54418 1032.13998,1181.54418 C1061.0151,1181.54418 1039.95819,1200.99453 1061.0151,1200.99453 C1082.07202,1200.99453 1065.59642,1157.68731 1089.02962,1157.68731 C1112.46283,1157.68731 1098.69748,1106.33358 1126.99458,1106.33358 C1155.29169,1106.33358 1138.41789,1060.88519 1181.85474,1060.88519 C1225.29159,1060.88519 1201.83698,1093.35811 1218.85206,1093.35811 C1235.86714,1093.35811 1232.13359,1060.12293 1246.08304,1060.12293 C1260.0325,1060.12293 1257.04823,1015.96781 1287.55036,1015.96781 C1318.05248,1015.96781 1313.44976,978.167662 1341.15601,978.167662 C1368.86225,978.167662 1366.22478,945.68189 1392.28261,945.347868 C1418.34044,945.013846 1425.18244,898.970211 1453,898.970211 C1480.81756,898.970211 1465.18238,929.61236 1490.81819,929.61236 C1516.45399,929.61236 1505.47211,904.121655 1529.80876,898.970211 C1554.14542,893.818768 1531.09933,867.351624 1559.59752,867.351624 C1588.09572,867.351624 1560.05451,903.747649 1587.94974,903.747649 C1615.84496,903.747649 1594.84897,877.557659 1615.76668,877.557659 C1636.6844,877.557659 1616.21944,834.954233 1652.41236,834.954233 C1688.60528,834.954233 1658.21355,867.351624 1686.23783,867.351624 C1714.26212,867.351624 1684.39894,813.08735 1718.46931,813.08735 C1752.53968,813.08735 1740.90772,789.465065 1775.09254,789.465065 C1809.27737,789.465065 1789.08197,762.047642 1813.21018,762.047642 C1837.33839,762.047642 1841.44648,750.440906 1877.05545,750.440906 C1912.66441,750.440906 1885.89059,721.185358 1910.16121,721.092679 C1934.43183,721 1916.96695,734.005789 1938.83571,734.005789 C1960.70447,734.005789 1944.08038,697.449226 1968.12095,697.449226 C1992.16151,697.449226 1992.81881,678.247993 2014.78342,678.247993 C2036.74803,678.247993 2028.41645,734.005789 2070.54122,734.005789 C2112.66599,734.005789 2073.00745,770.80533 2107.34076,770.80533 C2141.67407,770.80533 2129.76535,721.092679 2158.09828,721.092679 C2186.4312,721.092679 2166.89736,678.247993 2200.94296,678.247993 C2234.98857,678.247993 2224.08461,616.700668 2262.49029,616.700668 C2300.89597,616.700668 2273.78633,652.902081 2298.6917,652.902081 C2323.59707,652.902081 2320.76612,606.806342 2344.78744,606.806342 C2368.80876,606.806342 2348.8584,570.381634 2381.21215,570.381634 C2413.5659,570.381634 2384.17345,532.940858 2418.65292,532.940858 C2453.1324,532.940858 2439.02776,570.381634 2456.0937,570.381634 C2473.15963,570.381634 2470.12814,532.940858 2493.53448,532.940858 C2516.94081,532.940858 2497.06398,506.992682 2519.48265,506.992682 C2541.90133,506.992682 2546.47533,480 2560,480" id="Path" opacity="0.149999991"></path>
                <path d="M0,1546.97021 C10.9488785,1524.26262 23.5128759,1512.90883 37.6919922,1512.90883 C58.9606666,1512.90883 57.5031648,1497.41193 78.5687845,1490.82234 C99.6344041,1484.23274 110.025658,1490.50422 125.362631,1467.9353 C140.699605,1445.36639 156.139924,1435.46277 175.007737,1443.17452 C193.875549,1450.88626 189.415826,1475.61559 209.07462,1475.61559 C228.733413,1475.61559 215.175501,1493.7791 241.207811,1493.7791 C267.240121,1493.7791 249.680196,1466.45308 269.546959,1458.07364 C289.413722,1449.6942 267.250607,1422.45489 315.813029,1416.0296 C364.375452,1409.60431 342.757589,1389.99284 369.345638,1383.89616 C395.933686,1377.79948 376.804412,1330.47327 419.802463,1330.47327 C462.800514,1330.47327 446.216659,1371.99399 468.590813,1371.99399 C490.964968,1371.99399 483.699353,1356.62311 496.690597,1356.62311 C509.681841,1356.62311 511.847896,1355.82027 538.167118,1348.07131 C564.48634,1340.32235 545.011086,1321.04396 597.496223,1321.04396 C649.981359,1321.04396 630.0398,1416.0296 669.710979,1416.0296 C709.382157,1416.0296 688.357353,1376.54742 716.84927,1376.54742 C745.341187,1376.54742 719.4953,1330.47327 748.629457,1330.47327 C777.763615,1330.47327 753.382035,1296.99453 796.977301,1296.99453 C840.572568,1296.99453 831.105947,1313.39158 852.758006,1313.39158 C874.410064,1313.39158 876.871985,1290.41687 894.409425,1290.1428 C911.946865,1289.86873 904.184321,1268.8853 944.290082,1268.8853 C984.395843,1268.8853 963.227606,1241.54261 998.302485,1241.54261 C1033.37736,1241.54261 1003.26486,1277.54418 1032.13998,1277.54418 C1061.0151,1277.54418 1039.95819,1296.99453 1061.0151,1296.99453 C1082.07202,1296.99453 1065.59642,1253.68731 1089.02962,1253.68731 C1112.46283,1253.68731 1098.69748,1202.33358 1126.99458,1202.33358 C1155.29169,1202.33358 1138.41789,1156.88519 1181.85474,1156.88519 C1225.29159,1156.88519 1201.83698,1189.35811 1218.85206,1189.35811 C1235.86714,1189.35811 1232.13359,1156.12293 1246.08304,1156.12293 C1260.0325,1156.12293 1257.04823,1111.96781 1287.55036,1111.96781 C1318.05248,1111.96781 1313.44976,1074.16766 1341.15601,1074.16766 C1368.86225,1074.16766 1366.22478,1041.68189 1392.28261,1041.34787 C1418.34044,1041.01385 1425.18244,994.970211 1453,994.970211 C1480.81756,994.970211 1465.18238,1025.61236 1490.81819,1025.61236 C1516.45399,1025.61236 1505.47211,1000.12165 1529.80876,994.970211 C1554.14542,989.818768 1531.09933,963.351624 1559.59752,963.351624 C1588.09572,963.351624 1560.05451,999.747649 1587.94974,999.747649 C1615.84496,999.747649 1594.84897,973.557659 1615.76668,973.557659 C1636.6844,973.557659 1616.21944,930.954233 1652.41236,930.954233 C1688.60528,930.954233 1658.21355,963.351624 1686.23783,963.351624 C1714.26212,963.351624 1684.39894,909.08735 1718.46931,909.08735 C1752.53968,909.08735 1740.90772,885.465065 1775.09254,885.465065 C1809.27737,885.465065 1789.08197,858.047642 1813.21018,858.047642 C1837.33839,858.047642 1841.44648,846.440906 1877.05545,846.440906 C1912.66441,846.440906 1885.89059,817.185358 1910.16121,817.092679 C1934.43183,817 1916.96695,830.005789 1938.83571,830.005789 C1960.70447,830.005789 1944.08038,793.449226 1968.12095,793.449226 C1992.16151,793.449226 1992.81881,774.247993 2014.78342,774.247993 C2036.74803,774.247993 2028.41645,830.005789 2070.54122,830.005789 C2112.66599,830.005789 2073.00745,866.80533 2107.34076,866.80533 C2141.67407,866.80533 2129.76535,817.092679 2158.09828,817.092679 C2186.4312,817.092679 2166.89736,774.247993 2200.94296,774.247993 C2234.98857,774.247993 2224.08461,712.700668 2262.49029,712.700668 C2300.89597,712.700668 2273.78633,748.902081 2298.6917,748.902081 C2323.59707,748.902081 2320.76612,702.806342 2344.78744,702.806342 C2368.80876,702.806342 2348.8584,666.381634 2381.21215,666.381634 C2413.5659,666.381634 2384.17345,628.940858 2418.65292,628.940858 C2453.1324,628.940858 2439.02776,666.381634 2456.0937,666.381634 C2473.15963,666.381634 2470.12814,628.940858 2493.53448,628.940858 C2516.94081,628.940858 2497.06398,602.992682 2519.48265,602.992682 C2541.90133,602.992682 2546.47533,576 2560,576" id="Path" opacity="0.099999994"></path>
            </g>
        </g>
    </g>
</svg>