<?xml version="1.0" encoding="UTF-8"?>
<svg width="758px" height="835px" viewBox="0 0 758 835" version="1.1" xmlns="http://www.w3.org/2000/svg" xmlns:xlink="http://www.w3.org/1999/xlink">
    <title>graph</title>
    <defs>
        <linearGradient x1="100%" y1="44.4087844%" x2="0%" y2="44.393024%" id="linearGradient-1">
            <stop stop-color="#00FC89" stop-opacity="0" offset="0%"></stop>
            <stop stop-color="#00FC89" offset="11.7979677%"></stop>
            <stop stop-color="#00FC89" offset="88.5926573%"></stop>
            <stop stop-color="#00FC89" stop-opacity="0" offset="100%"></stop>
        </linearGradient>
    </defs>
    <g id="📷-Image-Ratio" stroke="none" stroke-width="1" fill="none" fill-rule="evenodd">
        <g id="Artboard" transform="translate(2.000000, 2.000000)" stroke="url(#linearGradient-1)" stroke-width="2.69999981">
            <g id="graph">
                <path d="M0,452 C5.69673238,436.532513 12.2338157,428.798769 19.6112499,428.798769 C30.6774012,428.798769 29.9190589,418.242909 40.8795603,413.754346 C51.8400616,409.265784 57.2466603,413.537657 65.2265309,398.164628 C73.2064014,382.791599 81.2400432,376.045659 91.0570192,381.298587 C100.873995,386.551515 98.5535889,403.396125 108.782115,403.396125 C119.01064,403.396125 111.95642,415.768372 125.501105,415.768372 C139.045789,415.768372 129.90931,397.154999 140.246043,391.447262 C150.582776,385.739525 139.051245,367.185213 164.31841,362.808567 C189.585576,358.431921 178.337741,345.073388 192.171578,340.920574 C206.005414,336.767761 196.052399,304.531072 218.424406,304.531072 C240.796413,304.531072 232.167787,332.8133 243.809122,332.8133 C255.450458,332.8133 251.670138,322.343279 258.429519,322.343279 C265.1889,322.343279 266.315904,321.796415 280.00987,316.51814 C293.703836,311.239864 283.570806,298.108207 310.878971,298.108207 C338.187135,298.108207 327.811486,362.808567 348.452512,362.808567 C369.093538,362.808567 358.154273,335.914907 372.978698,335.914907 C387.803123,335.914907 374.355435,304.531072 389.514019,304.531072 C404.672603,304.531072 391.986799,281.726711 414.669539,281.726711 C437.352279,281.726711 432.426769,292.895716 443.692397,292.895716 C454.958024,292.895716 456.238968,277.246275 465.363748,277.05959 C474.488527,276.872905 470.449654,262.579846 491.316794,262.579846 C512.183935,262.579846 501.170041,243.955114 519.4196,243.955114 C537.669159,243.955114 522.001538,268.47792 537.025345,268.47792 C552.049151,268.47792 541.093179,281.726711 552.049151,281.726711 C563.005124,281.726711 554.432822,252.227587 566.625185,252.227587 C578.817547,252.227587 571.655397,217.247512 586.378461,217.247512 C601.101524,217.247512 592.322042,186.289912 614.922357,186.289912 C637.522671,186.289912 625.319169,208.409151 634.172166,208.409151 C643.025162,208.409151 641.082582,185.770695 648.340524,185.770695 C655.598467,185.770695 654.045739,155.694015 669.916083,155.694015 C685.786427,155.694015 683.391618,129.946089 697.807254,129.946089 C712.222891,129.946089 710.85061,107.8181 724.40857,107.590578 C737.966531,107.363056 741.526442,76 756,76" id="Path" opacity="0.699999988"></path>
                <path d="M0,376 C5.69673238,360.532513 12.2338157,352.798769 19.6112499,352.798769 C30.6774012,352.798769 29.9190589,342.242909 40.8795603,337.754346 C51.8400616,333.265784 57.2466603,337.537657 65.2265309,322.164628 C73.2064014,306.791599 81.2400432,300.045659 91.0570192,305.298587 C100.873995,310.551515 98.5535889,327.396125 108.782115,327.396125 C119.01064,327.396125 111.95642,339.768372 125.501105,339.768372 C139.045789,339.768372 129.90931,321.154999 140.246043,315.447262 C150.582776,309.739525 139.051245,291.185213 164.31841,286.808567 C189.585576,282.431921 178.337741,269.073388 192.171578,264.920574 C206.005414,260.767761 196.052399,228.531072 218.424406,228.531072 C240.796413,228.531072 232.167787,256.8133 243.809122,256.8133 C255.450458,256.8133 251.670138,246.343279 258.429519,246.343279 C265.1889,246.343279 266.315904,245.796415 280.00987,240.51814 C293.703836,235.239864 283.570806,222.108207 310.878971,222.108207 C338.187135,222.108207 327.811486,286.808567 348.452512,286.808567 C369.093538,286.808567 358.154273,259.914907 372.978698,259.914907 C387.803123,259.914907 374.355435,228.531072 389.514019,228.531072 C404.672603,228.531072 391.986799,205.726711 414.669539,205.726711 C437.352279,205.726711 432.426769,216.895716 443.692397,216.895716 C454.958024,216.895716 456.238968,201.246275 465.363748,201.05959 C474.488527,200.872905 470.449654,186.579846 491.316794,186.579846 C512.183935,186.579846 501.170041,167.955114 519.4196,167.955114 C537.669159,167.955114 522.001538,192.47792 537.025345,192.47792 C552.049151,192.47792 541.093179,205.726711 552.049151,205.726711 C563.005124,205.726711 554.432822,176.227587 566.625185,176.227587 C578.817547,176.227587 571.655397,141.247512 586.378461,141.247512 C601.101524,141.247512 592.322042,110.289912 614.922357,110.289912 C637.522671,110.289912 625.319169,132.409151 634.172166,132.409151 C643.025162,132.409151 641.082582,109.770695 648.340524,109.770695 C655.598467,109.770695 654.045739,79.6940148 669.916083,79.6940148 C685.786427,79.6940148 683.391618,53.9460894 697.807254,53.9460894 C712.222891,53.9460894 710.85061,31.8181001 724.40857,31.5905779 C737.966531,31.3630558 741.526442,0 756,0" id="Path"></path>
                <path d="M0,528 C5.69673238,512.532513 12.2338157,504.798769 19.6112499,504.798769 C30.6774012,504.798769 29.9190589,494.242909 40.8795603,489.754346 C51.8400616,485.265784 57.2466603,489.537657 65.2265309,474.164628 C73.2064014,458.791599 81.2400432,452.045659 91.0570192,457.298587 C100.873995,462.551515 98.5535889,479.396125 108.782115,479.396125 C119.01064,479.396125 111.95642,491.768372 125.501105,491.768372 C139.045789,491.768372 129.90931,473.154999 140.246043,467.447262 C150.582776,461.739525 139.051245,443.185213 164.31841,438.808567 C189.585576,434.431921 178.337741,421.073388 192.171578,416.920574 C206.005414,412.767761 196.052399,380.531072 218.424406,380.531072 C240.796413,380.531072 232.167787,408.8133 243.809122,408.8133 C255.450458,408.8133 251.670138,398.343279 258.429519,398.343279 C265.1889,398.343279 266.315904,397.796415 280.00987,392.51814 C293.703836,387.239864 283.570806,374.108207 310.878971,374.108207 C338.187135,374.108207 327.811486,438.808567 348.452512,438.808567 C369.093538,438.808567 358.154273,411.914907 372.978698,411.914907 C387.803123,411.914907 374.355435,380.531072 389.514019,380.531072 C404.672603,380.531072 391.986799,357.726711 414.669539,357.726711 C437.352279,357.726711 432.426769,368.895716 443.692397,368.895716 C454.958024,368.895716 456.238968,353.246275 465.363748,353.05959 C474.488527,352.872905 470.449654,338.579846 491.316794,338.579846 C512.183935,338.579846 501.170041,319.955114 519.4196,319.955114 C537.669159,319.955114 522.001538,344.47792 537.025345,344.47792 C552.049151,344.47792 541.093179,357.726711 552.049151,357.726711 C563.005124,357.726711 554.432822,328.227587 566.625185,328.227587 C578.817547,328.227587 571.655397,293.247512 586.378461,293.247512 C601.101524,293.247512 592.322042,262.289912 614.922357,262.289912 C637.522671,262.289912 625.319169,284.409151 634.172166,284.409151 C643.025162,284.409151 641.082582,261.770695 648.340524,261.770695 C655.598467,261.770695 654.045739,231.694015 669.916083,231.694015 C685.786427,231.694015 683.391618,205.946089 697.807254,205.946089 C712.222891,205.946089 710.85061,183.8181 724.40857,183.590578 C737.966531,183.363056 741.526442,152 756,152" id="Path" opacity="0.5"></path>
                <path d="M0,604 C5.69673238,588.532513 12.2338157,580.798769 19.6112499,580.798769 C30.6774012,580.798769 29.9190589,570.242909 40.8795603,565.754346 C51.8400616,561.265784 57.2466603,565.537657 65.2265309,550.164628 C73.2064014,534.791599 81.2400432,528.045659 91.0570192,533.298587 C100.873995,538.551515 98.5535889,555.396125 108.782115,555.396125 C119.01064,555.396125 111.95642,567.768372 125.501105,567.768372 C139.045789,567.768372 129.90931,549.154999 140.246043,543.447262 C150.582776,537.739525 139.051245,519.185213 164.31841,514.808567 C189.585576,510.431921 178.337741,497.073388 192.171578,492.920574 C206.005414,488.767761 196.052399,456.531072 218.424406,456.531072 C240.796413,456.531072 232.167787,484.8133 243.809122,484.8133 C255.450458,484.8133 251.670138,474.343279 258.429519,474.343279 C265.1889,474.343279 266.315904,473.796415 280.00987,468.51814 C293.703836,463.239864 283.570806,450.108207 310.878971,450.108207 C338.187135,450.108207 327.811486,514.808567 348.452512,514.808567 C369.093538,514.808567 358.154273,487.914907 372.978698,487.914907 C387.803123,487.914907 374.355435,456.531072 389.514019,456.531072 C404.672603,456.531072 391.986799,433.726711 414.669539,433.726711 C437.352279,433.726711 432.426769,444.895716 443.692397,444.895716 C454.958024,444.895716 456.238968,429.246275 465.363748,429.05959 C474.488527,428.872905 470.449654,414.579846 491.316794,414.579846 C512.183935,414.579846 501.170041,395.955114 519.4196,395.955114 C537.669159,395.955114 522.001538,420.47792 537.025345,420.47792 C552.049151,420.47792 541.093179,433.726711 552.049151,433.726711 C563.005124,433.726711 554.432822,404.227587 566.625185,404.227587 C578.817547,404.227587 571.655397,369.247512 586.378461,369.247512 C601.101524,369.247512 592.322042,338.289912 614.922357,338.289912 C637.522671,338.289912 625.319169,360.409151 634.172166,360.409151 C643.025162,360.409151 641.082582,337.770695 648.340524,337.770695 C655.598467,337.770695 654.045739,307.694015 669.916083,307.694015 C685.786427,307.694015 683.391618,281.946089 697.807254,281.946089 C712.222891,281.946089 710.85061,259.8181 724.40857,259.590578 C737.966531,259.363056 741.526442,228 756,228" id="Path" opacity="0.299999982"></path>
                <path d="M0,680 C5.69673238,664.532513 12.2338157,656.798769 19.6112499,656.798769 C30.6774012,656.798769 29.9190589,646.242909 40.8795603,641.754346 C51.8400616,637.265784 57.2466603,641.537657 65.2265309,626.164628 C73.2064014,610.791599 81.2400432,604.045659 91.0570192,609.298587 C100.873995,614.551515 98.5535889,631.396125 108.782115,631.396125 C119.01064,631.396125 111.95642,643.768372 125.501105,643.768372 C139.045789,643.768372 129.90931,625.154999 140.246043,619.447262 C150.582776,613.739525 139.051245,595.185213 164.31841,590.808567 C189.585576,586.431921 178.337741,573.073388 192.171578,568.920574 C206.005414,564.767761 196.052399,532.531072 218.424406,532.531072 C240.796413,532.531072 232.167787,560.8133 243.809122,560.8133 C255.450458,560.8133 251.670138,550.343279 258.429519,550.343279 C265.1889,550.343279 266.315904,549.796415 280.00987,544.51814 C293.703836,539.239864 283.570806,526.108207 310.878971,526.108207 C338.187135,526.108207 327.811486,590.808567 348.452512,590.808567 C369.093538,590.808567 358.154273,563.914907 372.978698,563.914907 C387.803123,563.914907 374.355435,532.531072 389.514019,532.531072 C404.672603,532.531072 391.986799,509.726711 414.669539,509.726711 C437.352279,509.726711 432.426769,520.895716 443.692397,520.895716 C454.958024,520.895716 456.238968,505.246275 465.363748,505.05959 C474.488527,504.872905 470.449654,490.579846 491.316794,490.579846 C512.183935,490.579846 501.170041,471.955114 519.4196,471.955114 C537.669159,471.955114 522.001538,496.47792 537.025345,496.47792 C552.049151,496.47792 541.093179,509.726711 552.049151,509.726711 C563.005124,509.726711 554.432822,480.227587 566.625185,480.227587 C578.817547,480.227587 571.655397,445.247512 586.378461,445.247512 C601.101524,445.247512 592.322042,414.289912 614.922357,414.289912 C637.522671,414.289912 625.319169,436.409151 634.172166,436.409151 C643.025162,436.409151 641.082582,413.770695 648.340524,413.770695 C655.598467,413.770695 654.045739,383.694015 669.916083,383.694015 C685.786427,383.694015 683.391618,357.946089 697.807254,357.946089 C712.222891,357.946089 710.85061,335.8181 724.40857,335.590578 C737.966531,335.363056 741.526442,304 756,304" id="Path" opacity="0.199999988"></path>
                <path d="M0,756 C5.69673238,740.532513 12.2338157,732.798769 19.6112499,732.798769 C30.6774012,732.798769 29.9190589,722.242909 40.8795603,717.754346 C51.8400616,713.265784 57.2466603,717.537657 65.2265309,702.164628 C73.2064014,686.791599 81.2400432,680.045659 91.0570192,685.298587 C100.873995,690.551515 98.5535889,707.396125 108.782115,707.396125 C119.01064,707.396125 111.95642,719.768372 125.501105,719.768372 C139.045789,719.768372 129.90931,701.154999 140.246043,695.447262 C150.582776,689.739525 139.051245,671.185213 164.31841,666.808567 C189.585576,662.431921 178.337741,649.073388 192.171578,644.920574 C206.005414,640.767761 196.052399,608.531072 218.424406,608.531072 C240.796413,608.531072 232.167787,636.8133 243.809122,636.8133 C255.450458,636.8133 251.670138,626.343279 258.429519,626.343279 C265.1889,626.343279 266.315904,625.796415 280.00987,620.51814 C293.703836,615.239864 283.570806,602.108207 310.878971,602.108207 C338.187135,602.108207 327.811486,666.808567 348.452512,666.808567 C369.093538,666.808567 358.154273,639.914907 372.978698,639.914907 C387.803123,639.914907 374.355435,608.531072 389.514019,608.531072 C404.672603,608.531072 391.986799,585.726711 414.669539,585.726711 C437.352279,585.726711 432.426769,596.895716 443.692397,596.895716 C454.958024,596.895716 456.238968,581.246275 465.363748,581.05959 C474.488527,580.872905 470.449654,566.579846 491.316794,566.579846 C512.183935,566.579846 501.170041,547.955114 519.4196,547.955114 C537.669159,547.955114 522.001538,572.47792 537.025345,572.47792 C552.049151,572.47792 541.093179,585.726711 552.049151,585.726711 C563.005124,585.726711 554.432822,556.227587 566.625185,556.227587 C578.817547,556.227587 571.655397,521.247512 586.378461,521.247512 C601.101524,521.247512 592.322042,490.289912 614.922357,490.289912 C637.522671,490.289912 625.319169,512.409151 634.172166,512.409151 C643.025162,512.409151 641.082582,489.770695 648.340524,489.770695 C655.598467,489.770695 654.045739,459.694015 669.916083,459.694015 C685.786427,459.694015 683.391618,433.946089 697.807254,433.946089 C712.222891,433.946089 710.85061,411.8181 724.40857,411.590578 C737.966531,411.363056 741.526442,380 756,380" id="Path" opacity="0.149999991"></path>
                <path d="M0,832 C5.69673238,816.532513 12.2338157,808.798769 19.6112499,808.798769 C30.6774012,808.798769 29.9190589,798.242909 40.8795603,793.754346 C51.8400616,789.265784 57.2466603,793.537657 65.2265309,778.164628 C73.2064014,762.791599 81.2400432,756.045659 91.0570192,761.298587 C100.873995,766.551515 98.5535889,783.396125 108.782115,783.396125 C119.01064,783.396125 111.95642,795.768372 125.501105,795.768372 C139.045789,795.768372 129.90931,777.154999 140.246043,771.447262 C150.582776,765.739525 139.051245,747.185213 164.31841,742.808567 C189.585576,738.431921 178.337741,725.073388 192.171578,720.920574 C206.005414,716.767761 196.052399,684.531072 218.424406,684.531072 C240.796413,684.531072 232.167787,712.8133 243.809122,712.8133 C255.450458,712.8133 251.670138,702.343279 258.429519,702.343279 C265.1889,702.343279 266.315904,701.796415 280.00987,696.51814 C293.703836,691.239864 283.570806,678.108207 310.878971,678.108207 C338.187135,678.108207 327.811486,742.808567 348.452512,742.808567 C369.093538,742.808567 358.154273,715.914907 372.978698,715.914907 C387.803123,715.914907 374.355435,684.531072 389.514019,684.531072 C404.672603,684.531072 391.986799,661.726711 414.669539,661.726711 C437.352279,661.726711 432.426769,672.895716 443.692397,672.895716 C454.958024,672.895716 456.238968,657.246275 465.363748,657.05959 C474.488527,656.872905 470.449654,642.579846 491.316794,642.579846 C512.183935,642.579846 501.170041,623.955114 519.4196,623.955114 C537.669159,623.955114 522.001538,648.47792 537.025345,648.47792 C552.049151,648.47792 541.093179,661.726711 552.049151,661.726711 C563.005124,661.726711 554.432822,632.227587 566.625185,632.227587 C578.817547,632.227587 571.655397,597.247512 586.378461,597.247512 C601.101524,597.247512 592.322042,566.289912 614.922357,566.289912 C637.522671,566.289912 625.319169,588.409151 634.172166,588.409151 C643.025162,588.409151 641.082582,565.770695 648.340524,565.770695 C655.598467,565.770695 654.045739,535.694015 669.916083,535.694015 C685.786427,535.694015 683.391618,509.946089 697.807254,509.946089 C712.222891,509.946089 710.85061,487.8181 724.40857,487.590578 C737.966531,487.363056 741.526442,456 756,456" id="Path" opacity="0.099999994"></path>
            </g>
        </g>
    </g>
</svg>