<?xml version="1.0" encoding="UTF-8"?>
<svg width="24px" height="24px" viewBox="0 0 24 24" version="1.1" xmlns="http://www.w3.org/2000/svg" xmlns:xlink="http://www.w3.org/1999/xlink">
    <title>icon / menu</title>
    <g id="icon-/-menu" stroke="none" stroke-width="1" fill="none" fill-rule="evenodd">
        <path d="M23,19 C23.5522847,19 24,19.4477153 24,20 C24,20.5128358 23.6139598,20.9355072 23.1166211,20.9932723 L23,21 L1,21 C0.44771525,21 0,20.5522847 0,20 C0,19.4871642 0.38604019,19.0644928 0.883378875,19.0067277 L1,19 L23,19 Z M23,11 C23.5522847,11 24,11.4477153 24,12 C24,12.5128358 23.6139598,12.9355072 23.1166211,12.9932723 L23,13 L1,13 C0.44771525,13 0,12.5522847 0,12 C0,11.4871642 0.38604019,11.0644928 0.883378875,11.0067277 L1,11 L23,11 Z M23,3 C23.5522847,3 24,3.44771525 24,4 C24,4.51283584 23.6139598,4.93550716 23.1166211,4.99327227 L23,5 L1,5 C0.44771525,5 0,4.55228475 0,4 C0,3.48716416 0.38604019,3.06449284 0.883378875,3.00672773 L1,3 L23,3 Z" id="Combined-Shape" fill="#1B1B1B" fill-rule="nonzero"></path>
    </g>
</svg>