<?xml version="1.0" encoding="UTF-8"?>
<svg width="118px" height="31px" viewBox="0 0 118 31" version="1.1" xmlns="http://www.w3.org/2000/svg" xmlns:xlink="http://www.w3.org/1999/xlink">
    <title>brand / logo</title>
    <g id="ðŸŒ-Website" stroke="none" stroke-width="1" fill="none" fill-rule="evenodd">
        <g id="Home---Desktop-" transform="translate(-208.000000, -64.000000)" fill="#00BE68">
            <g id="brand-/-logo" transform="translate(208.000000, 64.000000)">
                <path d="M39.9474601,9.51091308 L39.9474601,21.7278569 C39.9474601,23.836971 41.3912949,25.3889606 43.4365571,25.3889606 C45.5620257,25.3889606 47.0458434,23.7971764 47.0458434,21.6880623 L47.0458434,21.6880623 L47.0458434,9.51091308 L52.9009078,9.51091308 L52.9009078,30.4826701 L47.0458434,30.4826701 L47.0458434,28.5725291 L46.6448116,28.5725291 C45.6823352,29.9255457 43.9578985,31 41.5116044,31 C37.0600311,31 34.0923957,27.6970478 34.0923957,23.5982034 L34.0923957,23.5982034 L34.0923957,9.51091308 L39.9474601,9.51091308 Z M97.7366648,8.99358321 C104.23338,8.99358321 108.283801,13.7689359 108.283801,19.9768943 L108.283801,19.9768943 L108.283801,21.4492947 L92.9639853,21.4492947 C93.0044895,24.1951225 95.0497517,25.8664959 97.8168712,25.8664959 C99.5144388,25.8664959 101.149847,25.2782918 102.062595,23.9380095 C102.020531,24.0298201 102.039939,24.004609 102.063783,23.9639988 L102.077,23.94 L107.601646,24.5532739 C106.111246,29.1469555 102.163854,30.9224795 98.1637995,30.9975053 L97.8970776,31 C91.4400644,31 86.9485082,26.3440312 86.9485082,20.0166889 C86.9485082,13.450579 91.8414973,8.99358321 97.7366648,8.99358321 Z M22.9791226,8.99358321 C27.3503693,8.99358321 30.4784174,12.2169462 30.4784174,16.3157906 L30.4784174,16.3157906 L30.4784174,30.4826701 L24.623353,30.4826701 L24.623353,18.3055209 C24.623353,15.8780499 23.2598448,14.6046226 21.4552017,14.6046226 C19.6104554,14.6046226 18.1667409,15.9576392 18.1667409,18.3055209 L18.1667409,18.3055209 L18.1667409,30.4826701 L12.3517797,30.4826701 L12.3517797,17.788191 C12.3517797,15.7984607 10.9080652,14.6046226 9.10342202,14.6046226 C7.29877889,14.6046226 5.85506439,16.0372284 5.85506439,18.2259317 L5.85506439,18.2259317 L5.85506439,30.4826701 L0,30.4826701 L0,9.51091308 L5.85506439,9.51091308 L5.85506439,11.4210541 L6.29619937,11.4210541 C7.01805663,10.3068052 8.62218386,8.99358321 11.1085811,8.99358321 C13.8757005,8.99358321 15.6402405,10.2670106 16.6829232,12.0577678 L16.6829232,12.0577678 L17.1240582,12.0577678 C18.206844,10.426189 20.0916935,8.99358321 22.9791226,8.99358321 Z M63.1003497,9.51091308 L63.1003497,12.6944815 L63.5013815,12.6944815 C64.4237547,10.9037243 66.3707641,9.51091308 68.7769549,9.51091308 L68.7769549,9.51091308 L73.0058354,9.51091308 L69.7975809,14.6444172 L68.3759231,14.6444172 C65.1676687,14.6444172 63.1404529,17.1514773 63.1404529,21.0513486 L63.1404529,21.0513486 L63.1404529,30.4826701 L57.3254917,30.4826701 L57.3254917,9.51091308 L63.1003497,9.51091308 Z M83.5088584,9.51091308 L83.5088584,30.4826701 L77.6938972,30.4826701 L77.6938972,14.6444172 L73.8038886,14.6444172 L77.0121431,9.51091308 L83.5088584,9.51091308 Z M118,0.636712095 L118,30.4826701 L112.144936,30.4826701 L112.144936,0.636712095 L118,0.636712095 Z M97.7366648,13.8087305 C95.0096486,13.8087305 93.2852118,15.7188715 93.0044895,17.589218 L93.0044895,17.589218 L102.388233,17.589218 C102.107912,15.4801039 100.223062,13.8087305 97.7366648,13.8087305 Z M80.7016357,7.0826535e-15 C82.6666916,7.0826535e-15 84.1505093,1.47239881 84.1505093,3.34274526 C84.1505093,5.2528903 82.6666916,6.7252907 80.7016357,6.7252907 C78.6964767,6.7252907 77.212659,5.2528903 77.212659,3.34274526 C77.212659,1.47239881 78.6964767,7.0826535e-15 80.7016357,7.0826535e-15 Z" id="muriel-logo"></path>
            </g>
        </g>
    </g>
</svg>