<?xml version="1.0" encoding="UTF-8"?>
<svg width="48px" height="36px" viewBox="0 0 48 36" version="1.1" xmlns="http://www.w3.org/2000/svg" xmlns:xlink="http://www.w3.org/1999/xlink">
    <title>brand / icon</title>
    <g id="ðŸŒ-Website" stroke="none" stroke-width="1" fill="none" fill-rule="evenodd">
        <g id="Home---Desktop-" transform="translate(-203.000000, -5549.000000)" fill="#00BE68">
            <g id="footer" transform="translate(0.000000, 5463.000000)">
                <g id="brand-/-icon" transform="translate(203.000000, 80.000000)">
                    <path d="M0,41.0526316 L9.22105263,41.0526316 L9.22105263,21.6 C9.22105263,18.1263158 11.4947368,15.8526316 14.3368421,15.8526316 C17.1789474,15.8526316 19.4526316,17.7473684 19.4526316,20.9052632 L19.4526316,41.0526316 L28.6105263,41.0526316 L28.6105263,21.7263158 C28.6105263,18 30.8842105,15.8526316 33.7894737,15.8526316 C36.6315789,15.8526316 38.7789474,17.8736842 38.7789474,21.7263158 L38.7789474,41.0526316 L48,41.0526316 L48,18.5684211 C48,12.0631579 43.0736842,6.94736842 36.1894737,6.94736842 C31.6421053,6.94736842 28.6736842,9.22105263 26.9684211,11.8105263 L26.2736842,11.8105263 C24.6315789,8.96842105 21.8526316,6.94736842 17.4947368,6.94736842 C13.5789474,6.94736842 11.0526316,9.03157895 9.91578947,10.8 L9.22105263,10.8 L9.22105263,7.76842105 L0,7.76842105 L0,41.0526316 Z" id="m"></path>
                </g>
            </g>
        </g>
    </g>
</svg>