<?xml version="1.0" encoding="UTF-8"?>
<svg width="32px" height="28px" viewBox="0 0 32 28" version="1.1" xmlns="http://www.w3.org/2000/svg" xmlns:xlink="http://www.w3.org/1999/xlink">
    <title>icon / twitter</title>
    <g id="ðŸŒ-Website" stroke="none" stroke-width="1" fill="none" fill-rule="evenodd">
        <g id="Home---Desktop-" transform="translate(-1136.000000, -5553.000000)" fill="#1B1B1B" fill-rule="nonzero">
            <g id="footer" transform="translate(0.000000, 5463.000000)">
                <g id="content" transform="translate(203.000000, 80.000000)">
                    <g id="icon-/-twitter" transform="translate(933.000000, 8.000000)">
                        <path d="M19.0772397,3.26634158 C16.4747819,4.39007298 14.7558927,6.92214027 14.672015,9.75560516 L14.6693421,10.0217453 L14.3131511,9.99074973 C10.6286472,9.6111953 7.2532689,7.65573677 5.09381746,4.58079741 C4.49822498,3.73270666 3.20515517,3.85854659 2.78426004,4.80556064 C2.61056501,5.19637446 2.36608355,5.86270629 2.12554435,6.74704158 C1.33036034,9.6705122 1.19123296,12.7487738 2.14439898,15.6780157 L2.27206565,16.0505903 C3.20496139,18.6405316 4.96290626,20.8489171 7.62394626,22.5584345 L7.88667544,22.7230786 L7.72706716,22.7977477 C5.74608396,23.6804494 3.57828218,24.1018798 1.38900164,24.0147988 C-0.0141852575,23.9589855 -0.539091119,25.830635 0.688484864,26.5126216 C14.0745864,33.9493447 29.3360088,25.8263296 29.3360088,10.0137453 L29.3269859,9.67105236 L29.3040088,9.35774527 L29.4629339,9.18303033 C30.6675128,7.79001364 31.526976,6.1270829 31.9648124,4.32923604 C32.2563187,3.13225091 30.9075208,2.21407918 29.9008004,2.92419425 L29.460189,3.22188366 C28.7164458,3.70284742 27.9265527,4.10749276 27.1025816,4.42993745 L26.8426754,4.52441193 L26.8016382,4.48738226 C24.7862948,2.71333642 21.92752,2.17118154 19.3699995,3.14733439 L19.0772397,3.26634158 Z M25.4766033,6.928729 C25.8207655,7.32445305 26.3649449,7.48166771 26.8671193,7.33045224 L27.4081725,7.15690439 L27.7853421,7.0190786 C27.5302565,7.35447935 27.2559121,7.6656929 26.9597785,7.95773635 C26.6428911,8.27024706 26.5028257,8.72026476 26.5863864,9.15741257 C26.6406209,9.44114009 26.6683944,9.72929041 26.6693494,10.0181533 L26.6654563,10.4274101 C26.4452628,21.9650315 16.9190801,28.557848 6.92207183,26.132233 L6.57600877,26.0430786 L6.82669596,25.9725506 C8.44898136,25.4824617 9.99824355,24.7474484 11.418182,23.7835967 C12.2834832,23.1962318 12.1665443,21.8867451 11.2108601,21.4619965 C7.64935822,19.8791068 5.58289617,17.6270344 4.68019388,14.8528761 L4.54636224,14.4075101 C4.01067519,12.4673276 4.0456862,10.3982413 4.47384258,8.37620957 L4.54267544,8.06974527 L4.66755347,8.19841352 C7.65199055,11.1687017 11.7503056,12.8311235 16.037237,12.7199639 C16.7599111,12.7012251 17.3360088,12.1099956 17.3360088,11.3870786 L17.3360088,10.0537453 C17.3097892,8.08904062 18.5018888,6.33297844 20.3209019,5.63869863 C22.139915,4.94441882 24.1989042,5.45960743 25.4766033,6.928729 Z" id="Path"></path>
                    </g>
                </g>
            </g>
        </g>
    </g>
</svg>